# This file uses centimeters as units for non-parametric coordinates.

mtllib ball_model_v2.mtl
g default
v -0.900392 -0.900392 0.900392
v 0.900392 -0.900392 0.900392
v -0.900392 0.900392 0.900392
v 0.900392 0.900392 0.900392
v -0.900392 0.900392 -0.900392
v 0.900392 0.900392 -0.900392
v -0.900392 -0.900392 -0.900392
v 0.900392 -0.900392 -0.900392
v 1.137256 0.000000 1.137256
v 0.000000 1.137256 1.137256
v -1.137256 1.137256 0.000000
v 1.137256 1.137256 0.000000
v 0.000000 1.137256 -1.137256
v -1.137256 0.000000 -1.137256
v 1.137256 0.000000 -1.137256
v 0.000000 -1.137256 -1.137256
v -1.137256 -1.137256 0.000000
v 1.137256 -1.137256 0.000000
v 0.000000 -1.137256 1.137256
v -1.137256 0.000000 1.137256
v 0.000000 0.000000 1.553176
v 0.000000 1.553176 0.000000
v 0.000000 0.000000 -1.553176
v 0.000000 -1.553176 0.000000
v 1.553176 0.000000 0.000000
v -1.553176 0.000000 0.000000
v 0.000000 -0.620043 1.448812
v -0.620043 0.000000 1.448812
v 0.534096 -1.058984 1.058984
v 1.058984 -0.534096 1.058984
v 0.620043 0.000000 1.448812
v 0.000000 0.620043 1.448812
v 1.058984 0.534096 1.058984
v 0.534096 1.058984 1.058984
v -1.058984 0.534096 1.058984
v -0.534096 1.058984 1.058984
v -1.058984 1.058984 0.534096
v 0.000000 1.448812 0.620043
v -0.620043 1.448812 0.000000
v 1.058984 1.058984 0.534096
v 0.620043 1.448812 0.000000
v 0.000000 1.448812 -0.620043
v 1.058984 1.058984 -0.534096
v 0.534096 1.058984 -1.058984
v -1.058984 1.058984 -0.534096
v -0.534096 1.058984 -1.058984
v -1.058984 0.534096 -1.058984
v 0.000000 0.620043 -1.448812
v -0.620043 0.000000 -1.448812
v 1.058984 0.534096 -1.058984
v 0.620043 0.000000 -1.448812
v 0.000000 -0.620043 -1.448812
v 1.058984 -0.534096 -1.058984
v 0.534096 -1.058984 -1.058984
v -1.058984 -0.534096 -1.058984
v -0.534096 -1.058984 -1.058984
v -1.058984 -1.058984 -0.534096
v 0.000000 -1.448812 -0.620043
v -0.620043 -1.448812 0.000000
v 1.058984 -1.058984 -0.534096
v 0.620043 -1.448812 0.000000
v 0.000000 -1.448812 0.620043
v 1.058984 -1.058984 0.534096
v -1.058984 -1.058984 0.534096
v 1.448812 -0.620043 0.000000
v 1.448812 0.000000 0.620043
v 1.448812 0.000000 -0.620043
v 1.448812 0.620043 0.000000
v -1.448812 -0.620043 0.000000
v -1.448812 0.000000 -0.620043
v -1.448812 0.000000 0.620043
v -1.448812 0.620043 0.000000
v -0.534096 -1.058984 1.058984
v -1.058984 -0.534096 1.058984
v -0.577069 -0.577069 1.350588
v 0.577069 -0.577069 1.350588
v 0.577069 0.577069 1.350588
v -0.577069 0.577069 1.350588
v -0.577069 1.350588 0.577069
v 0.577069 1.350588 0.577069
v 0.577069 1.350588 -0.577069
v -0.577069 1.350588 -0.577069
v -0.577069 0.577069 -1.350588
v 0.577069 0.577069 -1.350588
v 0.577069 -0.577069 -1.350588
v -0.577069 -0.577069 -1.350588
v -0.577069 -1.350588 -0.577069
v 0.577069 -1.350588 -0.577069
v 0.577069 -1.350588 0.577069
v -0.577069 -1.350588 0.577069
v 1.350588 -0.577069 0.577069
v 1.350588 -0.577069 -0.577069
v 1.350588 0.577069 -0.577069
v 1.350588 0.577069 0.577069
v -1.350588 -0.577069 -0.577069
v -1.350588 -0.577069 0.577069
v -1.350588 0.577069 0.577069
v -1.350588 0.577069 -0.577069
vt 0.279054 0.724537
vt 0.293364 0.776839
vt 0.226694 0.776318
vt 0.226913 0.709647
vt 0.299860 0.845756
vt 0.229550 0.845365
vt 0.157281 0.844964
vt 0.157683 0.772695
vt 0.158073 0.702385
vt 0.292598 0.914595
vt 0.225927 0.914376
vt 0.277709 0.966736
vt 0.225406 0.981045
vt 0.156490 0.987542
vt 0.156880 0.917232
vt 0.087869 0.913609
vt 0.085013 0.844562
vt 0.087650 0.980281
vt 0.035509 0.965390
vt 0.021200 0.913088
vt 0.014703 0.844172
vt 0.088636 0.775551
vt 0.089157 0.708881
vt 0.021965 0.775332
vt 0.036855 0.723191
vt 0.038720 0.423805
vt 0.090741 0.408501
vt 0.091490 0.475168
vt 0.024827 0.476220
vt 0.159521 0.400694
vt 0.160470 0.470999
vt 0.161446 0.543261
vt 0.089182 0.544237
vt 0.018878 0.545186
vt 0.228487 0.406643
vt 0.229539 0.473306
vt 0.280902 0.420537
vt 0.296206 0.472558
vt 0.304013 0.541338
vt 0.233708 0.542286
vt 0.231402 0.611354
vt 0.162421 0.615525
vt 0.298064 0.610303
vt 0.284170 0.662718
vt 0.232149 0.678021
vt 0.163370 0.685829
vt 0.093353 0.613217
vt 0.026686 0.613966
vt 0.094404 0.679880
vt 0.041989 0.665987
vt 0.651263 0.669052
vt 0.635662 0.617120
vt 0.702324 0.615991
vt 0.703757 0.682647
vt 0.627461 0.548387
vt 0.697759 0.547035
vt 0.770015 0.545646
vt 0.771404 0.617902
vt 0.772755 0.688200
vt 0.633015 0.479387
vt 0.699671 0.477955
vt 0.646609 0.426894
vt 0.698541 0.411293
vt 0.767276 0.403092
vt 0.768626 0.473389
vt 0.837706 0.475302
vt 0.842272 0.544257
vt 0.836274 0.408646
vt 0.888767 0.422239
vt 0.904368 0.474172
vt 0.912570 0.542906
vt 0.840359 0.613336
vt 0.841490 0.679999
vt 0.907015 0.611904
vt 0.893422 0.664397
vt 0.644189 0.725083
vt 0.696461 0.710661
vt 0.696083 0.777332
vt 0.629412 0.777256
vt 0.765363 0.704017
vt 0.765123 0.774327
vt 0.764877 0.846597
vt 0.692608 0.846351
vt 0.622298 0.846111
vt 0.834218 0.711131
vt 0.834142 0.777802
vt 0.886391 0.725908
vt 0.900813 0.778180
vt 0.907457 0.847083
vt 0.837147 0.846843
vt 0.833672 0.915861
vt 0.764631 0.918866
vt 0.900344 0.915937
vt 0.885566 0.968110
vt 0.833294 0.982532
vt 0.764391 0.989176
vt 0.695613 0.915391
vt 0.628943 0.915013
vt 0.695537 0.982062
vt 0.643364 0.967285
vt 0.581641 0.724323
vt 0.596481 0.776478
vt 0.529810 0.776633
vt 0.529352 0.709963
vt 0.603675 0.845325
vt 0.533365 0.845648
vt 0.461096 0.845979
vt 0.460765 0.773710
vt 0.460442 0.703400
vt 0.597113 0.914235
vt 0.530443 0.914692
vt 0.582752 0.966523
vt 0.530597 0.981364
vt 0.461751 0.988558
vt 0.461428 0.918248
vt 0.392383 0.915326
vt 0.388828 0.846311
vt 0.392841 0.981995
vt 0.340552 0.967635
vt 0.325712 0.915480
vt 0.318518 0.846634
vt 0.391750 0.777266
vt 0.391595 0.710595
vt 0.325080 0.777724
vt 0.339440 0.725434
vt 0.345967 0.665124
vt 0.330196 0.613242
vt 0.396853 0.611894
vt 0.398504 0.678545
vt 0.321769 0.544535
vt 0.392062 0.542954
vt 0.464313 0.541328
vt 0.465938 0.613580
vt 0.467520 0.683873
vt 0.327097 0.475519
vt 0.393748 0.473869
vt 0.340518 0.422982
vt 0.392399 0.407211
vt 0.461106 0.398784
vt 0.462688 0.469077
vt 0.531773 0.470762
vt 0.536565 0.539702
vt 0.530122 0.404112
vt 0.582660 0.417533
vt 0.598431 0.469415
vt 0.606858 0.538122
vt 0.534879 0.608788
vt 0.536227 0.675446
vt 0.601530 0.607138
vt 0.588108 0.659675
vn -0.577350 -0.577350 0.577350
vn -0.348685 -0.662729 0.662729
vn -0.348571 -0.348571 0.870056
vn -0.662729 -0.348685 0.662729
vn -0.348685 -0.662729 0.662729
vn 0.000000 -0.707107 0.707107
vn 0.000000 -0.343473 0.939163
vn -0.348571 -0.348571 0.870056
vn -0.348571 -0.348571 0.870056
vn 0.000000 -0.343473 0.939163
vn 0.000000 0.000000 1.000000
vn -0.343473 0.000000 0.939163
vn -0.662729 -0.348685 0.662729
vn -0.348571 -0.348571 0.870056
vn -0.343473 0.000000 0.939163
vn -0.707107 0.000000 0.707107
vn 0.000000 -0.707107 0.707107
vn 0.348685 -0.662729 0.662729
vn 0.348571 -0.348571 0.870056
vn 0.000000 -0.343473 0.939163
vn 0.348685 -0.662729 0.662729
vn 0.577350 -0.577350 0.577350
vn 0.662729 -0.348685 0.662729
vn 0.348571 -0.348571 0.870056
vn 0.348571 -0.348571 0.870056
vn 0.662729 -0.348685 0.662729
vn 0.707107 -0.000000 0.707107
vn 0.343473 -0.000000 0.939163
vn 0.000000 -0.343473 0.939163
vn 0.348571 -0.348571 0.870056
vn 0.343473 -0.000000 0.939163
vn 0.000000 0.000000 1.000000
vn 0.000000 0.000000 1.000000
vn 0.343473 -0.000000 0.939163
vn 0.348571 0.348571 0.870056
vn 0.000000 0.343473 0.939163
vn 0.343473 -0.000000 0.939163
vn 0.707107 -0.000000 0.707107
vn 0.662729 0.348685 0.662729
vn 0.348571 0.348571 0.870056
vn 0.348571 0.348571 0.870056
vn 0.662729 0.348685 0.662729
vn 0.577350 0.577350 0.577350
vn 0.348685 0.662729 0.662729
vn 0.000000 0.343473 0.939163
vn 0.348571 0.348571 0.870056
vn 0.348685 0.662729 0.662729
vn 0.000000 0.707107 0.707107
vn -0.707107 0.000000 0.707107
vn -0.343473 0.000000 0.939163
vn -0.348571 0.348571 0.870056
vn -0.662729 0.348685 0.662729
vn -0.343473 0.000000 0.939163
vn 0.000000 0.000000 1.000000
vn 0.000000 0.343473 0.939163
vn -0.348571 0.348571 0.870056
vn -0.348571 0.348571 0.870056
vn 0.000000 0.343473 0.939163
vn 0.000000 0.707107 0.707107
vn -0.348685 0.662729 0.662729
vn -0.662729 0.348685 0.662729
vn -0.348571 0.348571 0.870056
vn -0.348685 0.662729 0.662729
vn -0.577350 0.577350 0.577350
vn -0.577350 0.577350 0.577350
vn -0.348685 0.662729 0.662729
vn -0.348571 0.870056 0.348571
vn -0.662729 0.662729 0.348685
vn -0.348685 0.662729 0.662729
vn 0.000000 0.707107 0.707107
vn 0.000000 0.939163 0.343473
vn -0.348571 0.870056 0.348571
vn -0.348571 0.870056 0.348571
vn 0.000000 0.939163 0.343473
vn -0.000000 1.000000 -0.000000
vn -0.343473 0.939163 -0.000000
vn -0.662729 0.662729 0.348685
vn -0.348571 0.870056 0.348571
vn -0.343473 0.939163 -0.000000
vn -0.707107 0.707107 -0.000000
vn 0.000000 0.707107 0.707107
vn 0.348685 0.662729 0.662729
vn 0.348571 0.870056 0.348571
vn 0.000000 0.939163 0.343473
vn 0.348685 0.662729 0.662729
vn 0.577350 0.577350 0.577350
vn 0.662729 0.662729 0.348685
vn 0.348571 0.870056 0.348571
vn 0.348571 0.870056 0.348571
vn 0.662729 0.662729 0.348685
vn 0.707107 0.707107 0.000000
vn 0.343473 0.939163 0.000000
vn 0.000000 0.939163 0.343473
vn 0.348571 0.870056 0.348571
vn 0.343473 0.939163 0.000000
vn -0.000000 1.000000 -0.000000
vn -0.000000 1.000000 -0.000000
vn 0.343473 0.939163 0.000000
vn 0.348571 0.870056 -0.348571
vn -0.000000 0.939163 -0.343473
vn 0.343473 0.939163 0.000000
vn 0.707107 0.707107 0.000000
vn 0.662729 0.662729 -0.348685
vn 0.348571 0.870056 -0.348571
vn 0.348571 0.870056 -0.348571
vn 0.662729 0.662729 -0.348685
vn 0.577350 0.577350 -0.577350
vn 0.348685 0.662729 -0.662729
vn -0.000000 0.939163 -0.343473
vn 0.348571 0.870056 -0.348571
vn 0.348685 0.662729 -0.662729
vn -0.000000 0.707107 -0.707107
vn -0.707107 0.707107 -0.000000
vn -0.343473 0.939163 -0.000000
vn -0.348571 0.870056 -0.348571
vn -0.662729 0.662729 -0.348685
vn -0.343473 0.939163 -0.000000
vn -0.000000 1.000000 -0.000000
vn -0.000000 0.939163 -0.343473
vn -0.348571 0.870056 -0.348571
vn -0.348571 0.870056 -0.348571
vn -0.000000 0.939163 -0.343473
vn -0.000000 0.707107 -0.707107
vn -0.348685 0.662729 -0.662729
vn -0.662729 0.662729 -0.348685
vn -0.348571 0.870056 -0.348571
vn -0.348685 0.662729 -0.662729
vn -0.577350 0.577350 -0.577350
vn -0.577350 0.577350 -0.577350
vn -0.348685 0.662729 -0.662729
vn -0.348571 0.348571 -0.870056
vn -0.662729 0.348685 -0.662729
vn -0.348685 0.662729 -0.662729
vn -0.000000 0.707107 -0.707107
vn -0.000000 0.343473 -0.939163
vn -0.348571 0.348571 -0.870056
vn -0.348571 0.348571 -0.870056
vn -0.000000 0.343473 -0.939163
vn 0.000000 0.000000 -1.000000
vn -0.343473 0.000000 -0.939163
vn -0.662729 0.348685 -0.662729
vn -0.348571 0.348571 -0.870056
vn -0.343473 0.000000 -0.939163
vn -0.707107 0.000000 -0.707107
vn -0.000000 0.707107 -0.707107
vn 0.348685 0.662729 -0.662729
vn 0.348571 0.348571 -0.870056
vn -0.000000 0.343473 -0.939163
vn 0.348685 0.662729 -0.662729
vn 0.577350 0.577350 -0.577350
vn 0.662729 0.348685 -0.662729
vn 0.348571 0.348571 -0.870056
vn 0.348571 0.348571 -0.870056
vn 0.662729 0.348685 -0.662729
vn 0.707107 0.000000 -0.707107
vn 0.343473 0.000000 -0.939163
vn -0.000000 0.343473 -0.939163
vn 0.348571 0.348571 -0.870056
vn 0.343473 0.000000 -0.939163
vn 0.000000 0.000000 -1.000000
vn 0.000000 0.000000 -1.000000
vn 0.343473 0.000000 -0.939163
vn 0.348571 -0.348571 -0.870056
vn 0.000000 -0.343473 -0.939163
vn 0.343473 0.000000 -0.939163
vn 0.707107 0.000000 -0.707107
vn 0.662729 -0.348685 -0.662729
vn 0.348571 -0.348571 -0.870056
vn 0.348571 -0.348571 -0.870056
vn 0.662729 -0.348685 -0.662729
vn 0.577350 -0.577350 -0.577350
vn 0.348685 -0.662729 -0.662729
vn 0.000000 -0.343473 -0.939163
vn 0.348571 -0.348571 -0.870056
vn 0.348685 -0.662729 -0.662729
vn 0.000000 -0.707107 -0.707107
vn -0.707107 0.000000 -0.707107
vn -0.343473 0.000000 -0.939163
vn -0.348571 -0.348571 -0.870056
vn -0.662729 -0.348685 -0.662729
vn -0.343473 0.000000 -0.939163
vn 0.000000 0.000000 -1.000000
vn 0.000000 -0.343473 -0.939163
vn -0.348571 -0.348571 -0.870056
vn -0.348571 -0.348571 -0.870056
vn 0.000000 -0.343473 -0.939163
vn 0.000000 -0.707107 -0.707107
vn -0.348685 -0.662729 -0.662729
vn -0.662729 -0.348685 -0.662729
vn -0.348571 -0.348571 -0.870056
vn -0.348685 -0.662729 -0.662729
vn -0.577350 -0.577350 -0.577350
vn -0.577350 -0.577350 -0.577350
vn -0.348685 -0.662729 -0.662729
vn -0.348571 -0.870056 -0.348571
vn -0.662729 -0.662729 -0.348685
vn -0.348685 -0.662729 -0.662729
vn 0.000000 -0.707107 -0.707107
vn 0.000000 -0.939163 -0.343473
vn -0.348571 -0.870056 -0.348571
vn -0.348571 -0.870056 -0.348571
vn 0.000000 -0.939163 -0.343473
vn 0.000000 -1.000000 0.000000
vn -0.343473 -0.939163 0.000000
vn -0.662729 -0.662729 -0.348685
vn -0.348571 -0.870056 -0.348571
vn -0.343473 -0.939163 0.000000
vn -0.707107 -0.707107 0.000000
vn 0.000000 -0.707107 -0.707107
vn 0.348685 -0.662729 -0.662729
vn 0.348571 -0.870056 -0.348571
vn 0.000000 -0.939163 -0.343473
vn 0.348685 -0.662729 -0.662729
vn 0.577350 -0.577350 -0.577350
vn 0.662729 -0.662729 -0.348685
vn 0.348571 -0.870056 -0.348571
vn 0.348571 -0.870056 -0.348571
vn 0.662729 -0.662729 -0.348685
vn 0.707107 -0.707107 0.000000
vn 0.343473 -0.939163 0.000000
vn 0.000000 -0.939163 -0.343473
vn 0.348571 -0.870056 -0.348571
vn 0.343473 -0.939163 0.000000
vn 0.000000 -1.000000 0.000000
vn 0.000000 -1.000000 0.000000
vn 0.343473 -0.939163 0.000000
vn 0.348571 -0.870056 0.348571
vn 0.000000 -0.939163 0.343473
vn 0.343473 -0.939163 0.000000
vn 0.707107 -0.707107 0.000000
vn 0.662729 -0.662729 0.348685
vn 0.348571 -0.870056 0.348571
vn 0.348571 -0.870056 0.348571
vn 0.662729 -0.662729 0.348685
vn 0.577350 -0.577350 0.577350
vn 0.348685 -0.662729 0.662729
vn 0.000000 -0.939163 0.343473
vn 0.348571 -0.870056 0.348571
vn 0.348685 -0.662729 0.662729
vn 0.000000 -0.707107 0.707107
vn -0.707107 -0.707107 0.000000
vn -0.343473 -0.939163 0.000000
vn -0.348571 -0.870056 0.348571
vn -0.662729 -0.662729 0.348685
vn -0.343473 -0.939163 0.000000
vn 0.000000 -1.000000 0.000000
vn 0.000000 -0.939163 0.343473
vn -0.348571 -0.870056 0.348571
vn -0.348571 -0.870056 0.348571
vn 0.000000 -0.939163 0.343473
vn 0.000000 -0.707107 0.707107
vn -0.348685 -0.662729 0.662729
vn -0.662729 -0.662729 0.348685
vn -0.348571 -0.870056 0.348571
vn -0.348685 -0.662729 0.662729
vn -0.577350 -0.577350 0.577350
vn 0.577350 -0.577350 0.577350
vn 0.662729 -0.662729 0.348685
vn 0.870056 -0.348571 0.348571
vn 0.662729 -0.348685 0.662729
vn 0.662729 -0.662729 0.348685
vn 0.707107 -0.707107 0.000000
vn 0.939163 -0.343473 0.000000
vn 0.870056 -0.348571 0.348571
vn 0.870056 -0.348571 0.348571
vn 0.939163 -0.343473 0.000000
vn 1.000000 0.000000 0.000000
vn 0.939163 -0.000000 0.343473
vn 0.662729 -0.348685 0.662729
vn 0.870056 -0.348571 0.348571
vn 0.939163 -0.000000 0.343473
vn 0.707107 -0.000000 0.707107
vn 0.707107 -0.707107 0.000000
vn 0.662729 -0.662729 -0.348685
vn 0.870056 -0.348571 -0.348571
vn 0.939163 -0.343473 0.000000
vn 0.662729 -0.662729 -0.348685
vn 0.577350 -0.577350 -0.577350
vn 0.662729 -0.348685 -0.662729
vn 0.870056 -0.348571 -0.348571
vn 0.870056 -0.348571 -0.348571
vn 0.662729 -0.348685 -0.662729
vn 0.707107 0.000000 -0.707107
vn 0.939163 0.000000 -0.343473
vn 0.939163 -0.343473 0.000000
vn 0.870056 -0.348571 -0.348571
vn 0.939163 0.000000 -0.343473
vn 1.000000 0.000000 0.000000
vn 1.000000 0.000000 0.000000
vn 0.939163 0.000000 -0.343473
vn 0.870056 0.348571 -0.348571
vn 0.939163 0.343473 0.000000
vn 0.939163 0.000000 -0.343473
vn 0.707107 0.000000 -0.707107
vn 0.662729 0.348685 -0.662729
vn 0.870056 0.348571 -0.348571
vn 0.870056 0.348571 -0.348571
vn 0.662729 0.348685 -0.662729
vn 0.577350 0.577350 -0.577350
vn 0.662729 0.662729 -0.348685
vn 0.939163 0.343473 0.000000
vn 0.870056 0.348571 -0.348571
vn 0.662729 0.662729 -0.348685
vn 0.707107 0.707107 0.000000
vn 0.707107 -0.000000 0.707107
vn 0.939163 -0.000000 0.343473
vn 0.870056 0.348571 0.348571
vn 0.662729 0.348685 0.662729
vn 0.939163 -0.000000 0.343473
vn 1.000000 0.000000 0.000000
vn 0.939163 0.343473 0.000000
vn 0.870056 0.348571 0.348571
vn 0.870056 0.348571 0.348571
vn 0.939163 0.343473 0.000000
vn 0.707107 0.707107 0.000000
vn 0.662729 0.662729 0.348685
vn 0.662729 0.348685 0.662729
vn 0.870056 0.348571 0.348571
vn 0.662729 0.662729 0.348685
vn 0.577350 0.577350 0.577350
vn -0.577350 -0.577350 -0.577350
vn -0.662729 -0.662729 -0.348685
vn -0.870056 -0.348571 -0.348571
vn -0.662729 -0.348685 -0.662729
vn -0.662729 -0.662729 -0.348685
vn -0.707107 -0.707107 0.000000
vn -0.939163 -0.343473 0.000000
vn -0.870056 -0.348571 -0.348571
vn -0.870056 -0.348571 -0.348571
vn -0.939163 -0.343473 0.000000
vn -1.000000 0.000000 0.000000
vn -0.939163 0.000000 -0.343473
vn -0.662729 -0.348685 -0.662729
vn -0.870056 -0.348571 -0.348571
vn -0.939163 0.000000 -0.343473
vn -0.707107 0.000000 -0.707107
vn -0.707107 -0.707107 0.000000
vn -0.662729 -0.662729 0.348685
vn -0.870056 -0.348571 0.348571
vn -0.939163 -0.343473 0.000000
vn -0.662729 -0.662729 0.348685
vn -0.577350 -0.577350 0.577350
vn -0.662729 -0.348685 0.662729
vn -0.870056 -0.348571 0.348571
vn -0.870056 -0.348571 0.348571
vn -0.662729 -0.348685 0.662729
vn -0.707107 0.000000 0.707107
vn -0.939163 0.000000 0.343473
vn -0.939163 -0.343473 0.000000
vn -0.870056 -0.348571 0.348571
vn -0.939163 0.000000 0.343473
vn -1.000000 0.000000 0.000000
vn -1.000000 0.000000 0.000000
vn -0.939163 0.000000 0.343473
vn -0.870056 0.348571 0.348571
vn -0.939163 0.343473 -0.000000
vn -0.939163 0.000000 0.343473
vn -0.707107 0.000000 0.707107
vn -0.662729 0.348685 0.662729
vn -0.870056 0.348571 0.348571
vn -0.870056 0.348571 0.348571
vn -0.662729 0.348685 0.662729
vn -0.577350 0.577350 0.577350
vn -0.662729 0.662729 0.348685
vn -0.939163 0.343473 -0.000000
vn -0.870056 0.348571 0.348571
vn -0.662729 0.662729 0.348685
vn -0.707107 0.707107 -0.000000
vn -0.707107 0.000000 -0.707107
vn -0.939163 0.000000 -0.343473
vn -0.870056 0.348571 -0.348571
vn -0.662729 0.348685 -0.662729
vn -0.939163 0.000000 -0.343473
vn -1.000000 0.000000 0.000000
vn -0.939163 0.343473 -0.000000
vn -0.870056 0.348571 -0.348571
vn -0.870056 0.348571 -0.348571
vn -0.939163 0.343473 -0.000000
vn -0.707107 0.707107 -0.000000
vn -0.662729 0.662729 -0.348685
vn -0.662729 0.348685 -0.662729
vn -0.870056 0.348571 -0.348571
vn -0.662729 0.662729 -0.348685
vn -0.577350 0.577350 -0.577350
s off
g ball_whole
usemtl initialShadingGroup
f 1/1/1 73/2/2 75/3/3 74/4/4
f 73/2/5 19/5/6 27/6/7 75/3/8
f 75/3/9 27/6/10 21/7/11 28/8/12
f 74/4/13 75/3/14 28/8/15 20/9/16
f 19/5/17 29/10/18 76/11/19 27/6/20
f 29/10/21 2/12/22 30/13/23 76/11/24
f 76/11/25 30/13/26 9/14/27 31/15/28
f 27/6/29 76/11/30 31/15/31 21/7/32
f 21/7/33 31/15/34 77/16/35 32/17/36
f 31/15/37 9/14/38 33/18/39 77/16/40
f 77/16/41 33/18/42 4/19/43 34/20/44
f 32/17/45 77/16/46 34/20/47 10/21/48
f 20/9/49 28/8/50 78/22/51 35/23/52
f 28/8/53 21/7/54 32/17/55 78/22/56
f 78/22/57 32/17/58 10/21/59 36/24/60
f 35/23/61 78/22/62 36/24/63 3/25/64
f 3/26/65 36/27/66 79/28/67 37/29/68
f 36/27/69 10/30/70 38/31/71 79/28/72
f 79/28/73 38/31/74 22/32/75 39/33/76
f 37/29/77 79/28/78 39/33/79 11/34/80
f 10/30/81 34/35/82 80/36/83 38/31/84
f 34/35/85 4/37/86 40/38/87 80/36/88
f 80/36/89 40/38/90 12/39/91 41/40/92
f 38/31/93 80/36/94 41/40/95 22/32/96
f 22/32/97 41/40/98 81/41/99 42/42/100
f 41/40/101 12/39/102 43/43/103 81/41/104
f 81/41/105 43/43/106 6/44/107 44/45/108
f 42/42/109 81/41/110 44/45/111 13/46/112
f 11/34/113 39/33/114 82/47/115 45/48/116
f 39/33/117 22/32/118 42/42/119 82/47/120
f 82/47/121 42/42/122 13/46/123 46/49/124
f 45/48/125 82/47/126 46/49/127 5/50/128
f 5/51/129 46/52/130 83/53/131 47/54/132
f 46/52/133 13/55/134 48/56/135 83/53/136
f 83/53/137 48/56/138 23/57/139 49/58/140
f 47/54/141 83/53/142 49/58/143 14/59/144
f 13/55/145 44/60/146 84/61/147 48/56/148
f 44/60/149 6/62/150 50/63/151 84/61/152
f 84/61/153 50/63/154 15/64/155 51/65/156
f 48/56/157 84/61/158 51/65/159 23/57/160
f 23/57/161 51/65/162 85/66/163 52/67/164
f 51/65/165 15/64/166 53/68/167 85/66/168
f 85/66/169 53/68/170 8/69/171 54/70/172
f 52/67/173 85/66/174 54/70/175 16/71/176
f 14/59/177 49/58/178 86/72/179 55/73/180
f 49/58/181 23/57/182 52/67/183 86/72/184
f 86/72/185 52/67/186 16/71/187 56/74/188
f 55/73/189 86/72/190 56/74/191 7/75/192
f 7/76/193 56/77/194 87/78/195 57/79/196
f 56/77/197 16/80/198 58/81/199 87/78/200
f 87/78/201 58/81/202 24/82/203 59/83/204
f 57/79/205 87/78/206 59/83/207 17/84/208
f 16/80/209 54/85/210 88/86/211 58/81/212
f 54/85/213 8/87/214 60/88/215 88/86/216
f 88/86/217 60/88/218 18/89/219 61/90/220
f 58/81/221 88/86/222 61/90/223 24/82/224
f 24/82/225 61/90/226 89/91/227 62/92/228
f 61/90/229 18/89/230 63/93/231 89/91/232
f 89/91/233 63/93/234 2/94/235 29/95/236
f 62/92/237 89/91/238 29/95/239 19/96/240
f 17/84/241 59/83/242 90/97/243 64/98/244
f 59/83/245 24/82/246 62/92/247 90/97/248
f 90/97/249 62/92/250 19/96/251 73/99/252
f 64/98/253 90/97/254 73/99/255 1/100/256
f 2/101/257 63/102/258 91/103/259 30/104/260
f 63/102/261 18/105/262 65/106/263 91/103/264
f 91/103/265 65/106/266 25/107/267 66/108/268
f 30/104/269 91/103/270 66/108/271 9/109/272
f 18/105/273 60/110/274 92/111/275 65/106/276
f 60/110/277 8/112/278 53/113/279 92/111/280
f 92/111/281 53/113/282 15/114/283 67/115/284
f 65/106/285 92/111/286 67/115/287 25/107/288
f 25/107/289 67/115/290 93/116/291 68/117/292
f 67/115/293 15/114/294 50/118/295 93/116/296
f 93/116/297 50/118/298 6/119/299 43/120/300
f 68/117/301 93/116/302 43/120/303 12/121/304
f 9/109/305 66/108/306 94/122/307 33/123/308
f 66/108/309 25/107/310 68/117/311 94/122/312
f 94/122/313 68/117/314 12/121/315 40/124/316
f 33/123/317 94/122/318 40/124/319 4/125/320
f 7/126/321 57/127/322 95/128/323 55/129/324
f 57/127/325 17/130/326 69/131/327 95/128/328
f 95/128/329 69/131/330 26/132/331 70/133/332
f 55/129/333 95/128/334 70/133/335 14/134/336
f 17/130/337 64/135/338 96/136/339 69/131/340
f 64/135/341 1/137/342 74/138/343 96/136/344
f 96/136/345 74/138/346 20/139/347 71/140/348
f 69/131/349 96/136/350 71/140/351 26/132/352
f 26/132/353 71/140/354 97/141/355 72/142/356
f 71/140/357 20/139/358 35/143/359 97/141/360
f 97/141/361 35/143/362 3/144/363 37/145/364
f 72/142/365 97/141/366 37/145/367 11/146/368
f 14/134/369 70/133/370 98/147/371 47/148/372
f 70/133/373 26/132/374 72/142/375 98/147/376
f 98/147/377 72/142/378 11/146/379 45/149/380
f 47/148/381 98/147/382 45/149/383 5/150/384
