# This file uses centimeters as units for non-parametric coordinates.

mtllib squishball_model_v2.mtl
g default
v 0.486560 -1.643148 -1.300969
v -0.687861 -1.643148 -1.511554
v -1.556346 -1.643148 -1.151816
v -1.916084 -1.643148 -0.283331
v -1.556346 -1.643148 0.585154
v -0.687861 -1.643148 0.944892
v 0.180624 -1.643148 0.585154
v 0.804561 -1.643148 -0.283331
v 0.974037 -1.120498 -1.945229
v -0.687861 -0.872358 -2.633610
v -2.349758 -0.872358 -1.945229
v -3.038139 -0.872358 -0.283331
v -2.349758 -0.872358 1.378566
v -0.687861 -0.872358 2.066947
v 0.974037 -0.872358 1.378566
v 1.662418 -1.203514 -0.283331
v 0.658426 -0.261066 -1.703235
v -0.687861 0.342208 -2.851288
v -2.503680 0.382267 -2.099151
v -3.255817 0.382267 -0.283331
v -2.503680 0.382267 1.532488
v -0.687861 0.382267 2.284625
v 1.127959 0.382267 1.532488
v 1.880096 -0.115756 -0.123074
v 0.198308 0.074914 -1.299624
v -0.689902 0.702218 -2.336576
v -2.142841 1.204181 -1.738311
v -2.745513 1.438701 -0.283331
v -2.142841 1.443280 1.171649
v -0.687861 1.443280 1.774321
v 0.767119 1.443280 1.171649
v 1.201594 0.798699 -0.079600
v -0.251533 0.316518 -0.766967
v -0.791367 0.695496 -1.266046
v -1.459596 0.958130 -0.978215
v -1.670575 1.232267 -0.283331
v -1.382745 1.330130 0.411553
v -0.687861 1.550869 0.699383
v 0.007023 1.473858 0.607165
v 0.294854 0.834322 -0.283331
v -0.687861 -1.887457 -0.283331
v -0.699294 0.504892 -0.283331
vt 0.626865 0.243800
vt 0.690856 0.278572
vt 0.609620 0.343403
vt 0.588534 0.298413
vt 0.629362 0.191939
vt 0.695942 0.163539
vt 0.593768 0.152185
vt 0.619797 0.083040
vt 0.539822 0.149112
vt 0.510339 0.080391
vt 0.498863 0.185511
vt 0.430173 0.155157
vt 0.494546 0.240372
vt 0.422351 0.265908
vt 0.527596 0.293233
vt 0.506323 0.340682
vt 0.754252 0.285158
vt 0.631275 0.379853
vt 0.750118 0.125108
vt 0.633859 0.017914
vt 0.476820 0.022824
vt 0.366920 0.132908
vt 0.356414 0.281406
vt 0.463673 0.379853
vt 0.344483 0.241161
vt 0.309888 0.231620
vt 0.285158 0.142712
vt 0.321627 0.125203
vt 0.265045 0.337908
vt 0.236124 0.294208
vt 0.131823 0.353795
vt 0.145255 0.292727
vt 0.022514 0.260924
vt 0.080182 0.234183
vt 0.015500 0.116092
vt 0.071075 0.147280
vt 0.120676 0.021328
vt 0.131992 0.081794
vt 0.248270 0.019440
vt 0.212613 0.067831
vt 0.255782 0.207965
vt 0.246146 0.160654
vt 0.219228 0.238777
vt 0.172440 0.236695
vt 0.138608 0.206816
vt 0.129870 0.163349
vt 0.147436 0.128327
vt 0.213582 0.120173
vt 0.562862 0.215571
vt 0.210196 0.178752
vn -0.028937 -0.917649 -0.396338
vn -0.041723 -0.558876 -0.828201
vn 0.657463 -0.284797 -0.697591
vn 0.223518 -0.936095 -0.271598
vn -0.326311 -0.887154 -0.326311
vn -0.589762 -0.551691 -0.589761
vn -0.041723 -0.558876 -0.828201
vn -0.028937 -0.917649 -0.396338
vn -0.396504 -0.918033 0.000000
vn -0.834049 -0.551691 0.000000
vn -0.589762 -0.551691 -0.589761
vn -0.326311 -0.887154 -0.326311
vn -0.326312 -0.887154 0.326312
vn -0.589762 -0.551691 0.589762
vn -0.834049 -0.551691 0.000000
vn -0.396504 -0.918033 0.000000
vn 0.000000 -0.918033 0.396504
vn 0.000000 -0.551691 0.834049
vn -0.589762 -0.551691 0.589762
vn -0.326312 -0.887154 0.326312
vn 0.308010 -0.874674 0.374265
vn 0.550064 -0.550859 0.627681
vn 0.000000 -0.551691 0.834049
vn 0.000000 -0.918033 0.396504
vn 0.279128 -0.959186 0.045276
vn 0.814729 -0.578233 0.043168
vn 0.550064 -0.550859 0.627681
vn 0.308010 -0.874674 0.374265
vn 0.223518 -0.936095 -0.271598
vn 0.657463 -0.284797 -0.697591
vn 0.814729 -0.578233 0.043168
vn 0.279128 -0.959186 0.045276
vn 0.657463 -0.284797 -0.697591
vn -0.041723 -0.558876 -0.828201
vn 0.158748 0.183222 -0.970169
vn 0.607651 0.644762 -0.463726
vn -0.041723 -0.558876 -0.828201
vn -0.589762 -0.551691 -0.589761
vn -0.699100 0.139541 -0.701276
vn 0.158748 0.183222 -0.970169
vn -0.589762 -0.551691 -0.589761
vn -0.834049 -0.551691 0.000000
vn -0.992079 0.125617 0.000000
vn -0.699100 0.139541 -0.701276
vn -0.834049 -0.551691 0.000000
vn -0.589762 -0.551691 0.589762
vn -0.701528 0.125372 0.701528
vn -0.992079 0.125617 0.000000
vn -0.589762 -0.551691 0.589762
vn 0.000000 -0.551691 0.834049
vn 0.000000 0.125372 0.992110
vn -0.701528 0.125372 0.701528
vn 0.000000 -0.551691 0.834049
vn 0.550064 -0.550859 0.627681
vn 0.691411 0.125360 0.711502
vn 0.000000 0.125372 0.992110
vn 0.550064 -0.550859 0.627681
vn 0.814729 -0.578233 0.043168
vn 0.953271 0.238299 -0.185707
vn 0.691411 0.125360 0.711502
vn 0.814729 -0.578233 0.043168
vn 0.657463 -0.284797 -0.697591
vn 0.607651 0.644762 -0.463726
vn 0.953271 0.238299 -0.185707
vn 0.158748 0.183222 -0.970169
vn 0.453455 0.875766 -0.165566
vn 0.290079 0.914450 -0.282197
vn 0.607651 0.644762 -0.463726
vn -0.699100 0.139541 -0.701276
vn -0.073260 0.913189 -0.400898
vn 0.453455 0.875766 -0.165566
vn 0.158748 0.183222 -0.970169
vn -0.992079 0.125617 0.000000
vn -0.471317 0.879002 -0.072224
vn -0.073260 0.913189 -0.400898
vn -0.699100 0.139541 -0.701276
vn -0.701528 0.125372 0.701528
vn -0.363834 0.858275 0.361924
vn -0.471317 0.879002 -0.072224
vn -0.992079 0.125617 0.000000
vn 0.000000 0.125372 0.992110
vn 0.000000 0.804928 0.593373
vn -0.363834 0.858275 0.361924
vn -0.701528 0.125372 0.701528
vn 0.691411 0.125360 0.711502
vn 0.542782 0.792676 0.277583
vn 0.000000 0.804928 0.593373
vn 0.000000 0.125372 0.992110
vn 0.953271 0.238299 -0.185707
vn 0.480257 0.715825 -0.506899
vn 0.542782 0.792676 0.277583
vn 0.691411 0.125360 0.711502
vn 0.607651 0.644762 -0.463726
vn 0.290079 0.914450 -0.282197
vn 0.480257 0.715825 -0.506899
vn 0.953271 0.238299 -0.185707
vn 0.290079 0.914450 -0.282197
vn 0.453455 0.875766 -0.165566
vn 0.455328 0.886040 0.087235
vn 0.423417 0.705964 -0.567744
vn 0.453455 0.875766 -0.165566
vn -0.073260 0.913189 -0.400898
vn 0.392508 0.908257 -0.144935
vn 0.455328 0.886040 0.087235
vn -0.073260 0.913189 -0.400898
vn -0.471317 0.879002 -0.072224
vn 0.401171 0.879070 -0.257485
vn 0.392508 0.908257 -0.144935
vn -0.471317 0.879002 -0.072224
vn -0.363834 0.858275 0.361924
vn -0.131761 0.974049 -0.184032
vn 0.401171 0.879070 -0.257485
vn -0.363834 0.858275 0.361924
vn 0.000000 0.804928 0.593373
vn -0.035701 0.909346 -0.414507
vn -0.131761 0.974049 -0.184032
vn 0.000000 0.804928 0.593373
vn 0.542782 0.792676 0.277583
vn 0.205698 0.877170 -0.433891
vn -0.035701 0.909346 -0.414507
vn 0.542782 0.792676 0.277583
vn 0.480257 0.715825 -0.506899
vn -0.050431 0.768545 -0.637805
vn 0.205698 0.877170 -0.433891
vn 0.480257 0.715825 -0.506899
vn 0.290079 0.914450 -0.282197
vn 0.423417 0.705964 -0.567744
vn -0.050431 0.768545 -0.637805
vn -0.326311 -0.887154 -0.326311
vn -0.028937 -0.917649 -0.396338
vn 0.000000 -1.000000 0.000000
vn -0.396504 -0.918033 0.000000
vn -0.326312 -0.887154 0.326312
vn -0.396504 -0.918033 0.000000
vn 0.000000 -1.000000 0.000000
vn 0.000000 -0.918033 0.396504
vn 0.308010 -0.874674 0.374265
vn 0.000000 -0.918033 0.396504
vn 0.000000 -1.000000 0.000000
vn 0.279128 -0.959186 0.045276
vn 0.223518 -0.936095 -0.271598
vn 0.279128 -0.959186 0.045276
vn 0.000000 -1.000000 0.000000
vn -0.028937 -0.917649 -0.396338
vn 0.181840 0.898100 -0.400438
vn 0.455328 0.886040 0.087235
vn 0.392508 0.908257 -0.144935
vn 0.401171 0.879070 -0.257485
vn 0.181840 0.898100 -0.400438
vn 0.401171 0.879070 -0.257485
vn -0.131761 0.974049 -0.184032
vn -0.035701 0.909346 -0.414507
vn 0.181840 0.898100 -0.400438
vn -0.035701 0.909346 -0.414507
vn 0.205698 0.877170 -0.433891
vn -0.050431 0.768545 -0.637805
vn 0.181840 0.898100 -0.400438
vn -0.050431 0.768545 -0.637805
vn 0.423417 0.705964 -0.567744
vn 0.455328 0.886040 0.087235
s off
g ball_squished
usemtl initialShadingGroup
f 2/1/1 10/2/2 9/3/3 1/4/4
f 3/5/5 11/6/6 10/2/7 2/1/8
f 4/7/9 12/8/10 11/6/11 3/5/12
f 5/9/13 13/10/14 12/8/15 4/7/16
f 6/11/17 14/12/18 13/10/19 5/9/20
f 7/13/21 15/14/22 14/12/23 6/11/24
f 8/15/25 16/16/26 15/14/27 7/13/28
f 1/4/29 9/3/30 16/16/31 8/15/32
f 9/3/33 10/2/34 18/17/35 17/18/36
f 10/2/37 11/6/38 19/19/39 18/17/40
f 11/6/41 12/8/42 20/20/43 19/19/44
f 12/8/45 13/10/46 21/21/47 20/20/48
f 13/10/49 14/12/50 22/22/51 21/21/52
f 14/12/53 15/14/54 23/23/55 22/22/56
f 15/14/57 16/16/58 24/24/59 23/23/60
f 16/16/61 9/3/62 17/18/63 24/24/64
f 18/25/65 26/26/66 25/27/67 17/28/68
f 19/29/69 27/30/70 26/26/71 18/25/72
f 20/31/73 28/32/74 27/30/75 19/29/76
f 21/33/77 29/34/78 28/32/79 20/31/80
f 22/35/81 30/36/82 29/34/83 21/33/84
f 23/37/85 31/38/86 30/36/87 22/35/88
f 24/39/89 32/40/90 31/38/91 23/37/92
f 17/28/93 25/27/94 32/40/95 24/39/96
f 25/27/97 26/26/98 34/41/99 33/42/100
f 26/26/101 27/30/102 35/43/103 34/41/104
f 27/30/105 28/32/106 36/44/107 35/43/108
f 28/32/109 29/34/110 37/45/111 36/44/112
f 29/34/113 30/36/114 38/46/115 37/45/116
f 30/36/117 31/38/118 39/47/119 38/46/120
f 31/38/121 32/40/122 40/48/123 39/47/124
f 32/40/125 25/27/126 33/42/127 40/48/128
f 3/5/129 2/1/130 41/49/131 4/7/132
f 5/9/133 4/7/134 41/49/135 6/11/136
f 7/13/137 6/11/138 41/49/139 8/15/140
f 1/4/141 8/15/142 41/49/143 2/1/144
f 42/50/145 34/41/146 35/43/147 36/44/148
f 42/50/149 36/44/150 37/45/151 38/46/152
f 42/50/153 38/46/154 39/47/155 40/48/156
f 42/50/157 40/48/158 33/42/159 34/41/160
