# This file uses centimeters as units for non-parametric coordinates.

mtllib tapeplayer_model_v1.mtl
g default
v -1.114608 -1.524653 0.364404
v 0.893629 -1.524653 0.364404
v -1.114608 1.612581 0.364404
v 0.893629 1.612581 0.364404
v -1.114608 1.612581 -0.328101
v 0.794523 1.612581 -0.328101
v -1.114608 -1.524653 -0.328101
v 0.893629 -1.524653 -0.328101
v 0.893629 0.486026 0.364404
v 0.794523 0.486026 -0.328101
v -1.114608 -0.945766 0.364404
v 0.893629 -0.945766 0.364404
v 0.893629 -0.945766 -0.328101
v -1.114608 -0.945766 -0.328101
v -0.726213 -0.945766 0.364404
v -0.108569 0.612240 -0.328101
v -0.108569 -0.945766 -0.328101
v -0.108569 -1.524653 -0.328101
v -0.108569 -1.524653 0.364404
v -0.108569 -0.945766 0.364404
v -0.108569 1.612581 0.364404
v -0.108569 1.612581 -0.328101
v 0.768587 0.486026 -0.328101
v 0.768587 -0.945766 -0.328101
v 0.768587 -1.524653 -0.328101
v 0.768587 -1.524653 0.364404
v 0.768587 -0.945766 0.364404
v 0.768587 0.486026 0.364404
v 0.768587 1.612581 0.364404
v 0.768587 1.612581 -0.328101
v -0.108569 1.612581 0.014560
v 0.768587 1.612581 0.014560
v 0.893629 1.612581 0.014560
v 0.893629 0.486026 0.014560
v 0.893629 -0.945766 0.014560
v 0.893629 0.466282 -0.328101
v 0.893629 0.466282 0.014560
v 0.893629 0.466281 0.364404
v 0.768587 0.466282 -0.328101
v 0.893629 0.466282 -0.006701
v 0.796410 0.486026 -0.006701
v 0.796410 1.612581 -0.006701
v 0.768587 1.612581 -0.006701
v -0.108569 0.607929 0.364404
v -0.726213 0.605986 0.364404
v -1.114608 0.590240 0.364404
v -1.114608 0.590240 -0.328101
v -0.719217 -0.928167 0.329185
v -0.115566 -0.928167 0.329185
v -0.115566 0.590330 0.329185
v -0.719217 0.588431 0.329185
v 0.809752 0.669302 0.236792
v 0.952178 0.669302 0.236792
v 0.809752 1.270071 0.236792
v 0.969584 1.270071 0.236792
v 0.809752 1.270071 0.108844
v 0.969584 1.270071 0.108844
v 0.809752 0.669302 0.108844
v 0.952178 0.669302 0.108844
v 0.809752 1.050445 0.236792
v 0.945363 1.050445 0.236792
v 0.945363 1.050445 0.108844
v 0.809752 1.050445 0.108844
v -0.654923 1.535823 0.273248
v -0.399034 1.535823 0.273248
v -0.654923 1.724565 0.273248
v -0.399034 1.724565 0.273248
v -0.654923 1.724565 0.106874
v -0.399034 1.724565 0.106874
v -0.654923 1.535823 0.106874
v -0.399034 1.535823 0.106874
v 0.850962 -0.538331 -0.002842
v 0.920510 -0.538331 -0.002842
v 0.850962 -0.072996 -0.002842
v 0.920510 -0.072996 -0.002842
v 0.850962 -0.072996 -0.108982
v 0.920510 -0.072996 -0.108982
v 0.850962 -0.538331 -0.108982
v 0.920510 -0.538331 -0.108982
v 0.850962 -0.538331 -0.117223
v 0.920510 -0.538331 -0.117223
v 0.850962 -0.072996 -0.117223
v 0.920510 -0.072996 -0.117223
v 0.850962 -0.072996 -0.223364
v 0.920510 -0.072996 -0.223364
v 0.850962 -0.538331 -0.223364
v 0.920510 -0.538331 -0.223364
v 0.686970 0.559899 -0.021193
v 0.887453 0.559899 -0.021193
v 0.686970 0.992018 -0.021193
v 0.887453 0.992018 -0.021193
v 0.686970 0.992018 -0.279787
v 0.887453 0.992018 -0.279787
v 0.686970 0.559899 -0.279787
v 0.887453 0.559899 -0.279787
v 0.700406 1.145453 -0.029955
v 0.881259 1.145453 -0.029955
v 0.700406 1.303760 -0.029955
v 0.881259 1.303760 -0.029955
v 0.700406 1.303760 -0.263228
v 0.881259 1.303760 -0.263228
v 0.700406 1.145453 -0.263228
v 0.881259 1.145453 -0.263228
v 0.700406 1.417671 -0.029955
v 0.881259 1.417671 -0.029955
v 0.700406 1.549997 -0.029955
v 0.881259 1.549997 -0.029955
v 0.700406 1.549997 -0.263228
v 0.881259 1.549997 -0.263228
v 0.700406 1.417671 -0.263228
v 0.881259 1.417671 -0.263228
v 0.893629 -1.524653 0.018151
v 0.768587 -1.524653 0.018151
v -0.108569 -1.524653 0.018151
v -1.114608 -1.524653 0.018151
v -1.114608 -0.945766 0.018151
v -1.114608 0.590240 0.018151
v -1.114608 1.612581 0.018151
vt 0.989999 0.249200
vt 0.800031 0.249199
vt 0.800031 0.183138
vt 0.990000 0.183817
vt 0.629145 0.179124
vt 0.634399 0.179124
vt 0.634399 0.183139
vt 0.610787 0.183139
vt 0.634399 0.249200
vt 0.610788 0.249200
vt 0.634399 0.118435
vt 0.629501 0.118435
vt 0.800031 0.118434
vt 0.990000 0.118435
vt 0.990000 0.388322
vt 0.800031 0.388323
vt 0.800031 0.322941
vt 0.990000 0.322940
vt 0.634399 0.388322
vt 0.634399 0.322940
vt 0.610787 0.388322
vt 0.610788 0.322940
vt 0.610788 0.257557
vt 0.634400 0.257558
vt 0.800031 0.257558
vt 0.990000 0.257557
vt 0.441691 0.404555
vt 0.228965 0.404555
vt 0.228965 0.385764
vt 0.441691 0.385764
vt 0.677060 0.590648
vt 0.742443 0.590648
vt 0.742442 0.880690
vt 0.677059 0.880689
vt 0.742441 0.990000
vt 0.677059 0.990000
vt 0.677059 0.397601
vt 0.742441 0.397600
vt 0.611677 0.990000
vt 0.611677 0.880689
vt 0.611678 0.590648
vt 0.611677 0.397601
vt 0.017434 0.210558
vt 0.017434 0.096572
vt 0.304170 0.096572
vt 0.303811 0.210558
vt 0.820874 0.773520
vt 0.816847 0.506879
vt 0.881554 0.506878
vt 0.881566 0.773520
vt 0.881553 0.397565
vt 0.816169 0.397566
vt 0.750748 0.777253
vt 0.816723 0.777245
vt 0.816816 0.989979
vt 0.750751 0.990000
vt 0.750785 0.506879
vt 0.816859 0.773520
vt 0.750759 0.773524
vt 0.750785 0.397565
vt 0.602401 0.610779
vt 0.602396 0.800747
vt 0.413502 0.800750
vt 0.409354 0.610780
vt 0.119311 0.800750
vt 0.010000 0.800749
vt 0.010002 0.610779
vt 0.119313 0.610780
vt 0.385951 0.966388
vt 0.119312 0.966384
vt 0.010000 0.966382
vt 0.602377 0.966380
vt 0.389679 0.966388
vt 0.385951 0.990000
vt 0.119312 0.989995
vt 0.010000 0.989994
vt 0.602550 0.971275
vt 0.389680 0.971286
vt 0.493089 0.298163
vt 0.602399 0.414792
vt 0.493089 0.414792
vt 0.493089 0.224823
vt 0.200074 0.298163
vt 0.203047 0.224823
vt 0.602399 0.580424
vt 0.493089 0.580424
vt 0.602400 0.224825
vt 0.199707 0.414792
vt 0.222726 0.580424
vt 0.010000 0.580425
vt 0.010000 0.414792
vt 0.602400 0.604035
vt 0.493089 0.604035
vt 0.226455 0.604035
vt 0.222726 0.604035
vt 0.010000 0.604036
vt 0.211001 0.391289
vt 0.207923 0.389170
vt 0.210233 0.385875
vt 0.209883 0.325184
vt 0.228965 0.325073
vt 0.441691 0.325073
vt 0.010000 0.224823
vt 0.010000 0.211879
vt 0.010000 0.095251
vt 0.014111 0.089791
vt 0.307493 0.089791
vt 0.311607 0.095263
vt 0.311240 0.211892
vt 0.307126 0.217339
vt 0.014111 0.217339
vt 0.906662 0.891486
vt 0.880822 0.890644
vt 0.879739 0.848824
vt 0.909305 0.850392
vt 0.907664 0.962996
vt 0.881267 0.962949
vt 0.879808 0.818537
vt 0.855833 0.848880
vt 0.855562 0.818537
vt 0.826326 0.851410
vt 0.855921 0.890825
vt 0.830115 0.892379
vt 0.857380 0.962997
vt 0.831020 0.963897
vt 0.857318 0.990000
vt 0.881592 0.990000
vt 0.518427 0.217034
vt 0.484260 0.182868
vt 0.509461 0.157666
vt 0.543628 0.191833
vt 0.531675 0.135452
vt 0.565843 0.169618
vt 0.556877 0.110251
vt 0.591044 0.144417
vt 0.484260 0.132465
vt 0.506474 0.110251
vt 0.591044 0.194820
vt 0.568829 0.217034
vt 0.890498 0.520731
vt 0.903631 0.520731
vt 0.903631 0.608600
vt 0.890498 0.608600
vt 0.903631 0.621733
vt 0.923673 0.608600
vt 0.923673 0.621733
vt 0.936806 0.608600
vt 0.923673 0.520731
vt 0.936806 0.520731
vt 0.923673 0.507599
vt 0.903631 0.507599
vt 0.890498 0.643487
vt 0.903631 0.643487
vt 0.903631 0.731356
vt 0.890498 0.731356
vt 0.903631 0.744489
vt 0.923673 0.731356
vt 0.923673 0.744489
vt 0.936806 0.731356
vt 0.923673 0.643487
vt 0.936806 0.643487
vt 0.923673 0.630355
vt 0.903631 0.630355
vt 0.357019 0.216381
vt 0.357019 0.178524
vt 0.438614 0.178524
vt 0.438614 0.216381
vt 0.476472 0.178524
vt 0.438614 0.129694
vt 0.476472 0.129694
vt 0.438614 0.091837
vt 0.357019 0.129694
vt 0.357019 0.091837
vt 0.319161 0.129694
vt 0.319161 0.178524
vt 0.531034 0.120810
vt 0.506886 0.096662
vt 0.528024 0.075525
vt 0.552171 0.099672
vt 0.552171 0.051377
vt 0.496877 0.044378
vt 0.521024 0.020230
vt 0.472728 0.020230
vt 0.475739 0.065515
vt 0.451591 0.041367
vt 0.451591 0.089663
vt 0.482738 0.120810
vt 0.968240 0.849783
vt 0.944092 0.825636
vt 0.961761 0.807967
vt 0.985908 0.832115
vt 0.985908 0.783819
vt 0.930614 0.776820
vt 0.954761 0.752672
vt 0.906465 0.752672
vt 0.912945 0.794488
vt 0.888797 0.770341
vt 0.888797 0.818636
vt 0.919944 0.849783
vn 0.000000 1.000000 0.000000
vn 0.000000 1.000000 0.000000
vn 0.000000 1.000000 0.000000
vn 0.000000 1.000000 0.000000
vn 0.000000 1.000000 0.000000
vn 0.000000 1.000000 0.000000
vn 0.000000 1.000000 0.000000
vn 0.000000 1.000000 0.000000
vn 0.000000 1.000000 0.000000
vn 0.000000 1.000000 0.000000
vn 0.000000 1.000000 0.000000
vn 0.000000 1.000000 0.000000
vn 0.000000 1.000000 0.000000
vn 0.000000 1.000000 0.000000
vn 0.000000 1.000000 0.000000
vn 0.000000 1.000000 0.000000
vn 0.000000 1.000000 0.000000
vn 0.000000 1.000000 0.000000
vn 0.000000 1.000000 0.000000
vn 0.000000 1.000000 0.000000
vn 0.000000 1.000000 0.000000
vn 0.000000 1.000000 0.000000
vn 0.000000 1.000000 0.000000
vn 0.000000 1.000000 0.000000
vn 0.000000 1.000000 0.000000
vn 0.000000 1.000000 0.000000
vn 0.000000 1.000000 0.000000
vn 0.000000 1.000000 0.000000
vn 0.000000 -1.000000 0.000000
vn 0.000000 -1.000000 0.000000
vn 0.000000 -1.000000 0.000000
vn 0.000000 -1.000000 0.000000
vn 0.000000 -1.000000 0.000000
vn 0.000000 -1.000000 0.000000
vn 0.000000 -1.000000 0.000000
vn 0.000000 -1.000000 0.000000
vn 0.000000 -1.000000 0.000000
vn 0.000000 -1.000000 0.000000
vn 0.000000 -1.000000 0.000000
vn 0.000000 -1.000000 0.000000
vn 0.000000 -1.000000 0.000000
vn 0.000000 -1.000000 0.000000
vn 0.000000 -1.000000 0.000000
vn 0.000000 -1.000000 0.000000
vn 0.000000 -1.000000 0.000000
vn 0.000000 -1.000000 0.000000
vn 0.000000 -1.000000 0.000000
vn 0.000000 -1.000000 0.000000
vn 0.000000 -1.000000 0.000000
vn 0.000000 -1.000000 0.000000
vn 0.000000 -1.000000 0.000000
vn 0.000000 -1.000000 0.000000
vn 0.213643 0.000000 -0.976912
vn 0.213643 0.000000 -0.976912
vn 0.213643 0.000000 -0.976912
vn 0.213643 0.000000 -0.976912
vn -1.000000 0.000000 0.000000
vn -1.000000 0.000000 0.000000
vn -1.000000 0.000000 0.000000
vn -1.000000 0.000000 0.000000
vn -1.000000 0.000000 0.000000
vn -1.000000 0.000000 0.000000
vn -1.000000 0.000000 0.000000
vn -1.000000 0.000000 0.000000
vn -1.000000 0.000000 0.000000
vn -1.000000 0.000000 0.000000
vn -1.000000 0.000000 0.000000
vn -1.000000 0.000000 0.000000
vn -1.000000 0.000000 0.000000
vn -1.000000 0.000000 0.000000
vn -1.000000 0.000000 0.000000
vn -1.000000 0.000000 0.000000
vn -1.000000 0.000000 0.000000
vn -1.000000 0.000000 0.000000
vn -1.000000 0.000000 0.000000
vn -1.000000 0.000000 0.000000
vn -1.000000 0.000000 0.000000
vn -1.000000 0.000000 0.000000
vn -1.000000 0.000000 0.000000
vn -1.000000 0.000000 0.000000
vn 1.000000 0.000000 0.000000
vn 1.000000 0.000000 0.000000
vn 1.000000 0.000000 0.000000
vn 1.000000 0.000000 0.000000
vn 1.000000 0.000000 0.000000
vn 1.000000 0.000000 0.000000
vn 1.000000 0.000000 0.000000
vn 1.000000 0.000000 0.000000
vn 1.000000 0.000000 0.000000
vn 1.000000 0.000000 0.000000
vn 1.000000 0.000000 0.000000
vn 1.000000 0.000000 0.000000
vn 1.000000 0.000000 0.000000
vn 1.000000 0.000000 0.000000
vn 1.000000 0.000000 0.000000
vn 1.000000 0.000000 0.000000
vn 1.000000 0.000000 0.000000
vn 1.000000 0.000000 0.000000
vn 1.000000 0.000000 0.000000
vn 1.000000 0.000000 0.000000
vn 1.000000 0.000000 0.000000
vn 1.000000 0.000000 0.000000
vn 1.000000 0.000000 0.000000
vn 1.000000 0.000000 0.000000
vn 1.000000 0.000000 0.000000
vn 1.000000 0.000000 0.000000
vn 1.000000 0.000000 0.000000
vn 0.000000 0.000000 -1.000000
vn 0.000000 0.000000 -1.000000
vn 0.000000 0.000000 -1.000000
vn 0.000000 0.000000 -1.000000
vn 0.000000 0.000000 -1.000000
vn 0.000000 0.000000 -1.000000
vn 0.000000 0.000000 -1.000000
vn 0.000000 0.000000 -1.000000
vn 0.000000 0.000000 -1.000000
vn 0.000000 0.000000 -1.000000
vn 0.000000 0.000000 -1.000000
vn 0.000000 0.000000 -1.000000
vn 0.000000 0.000000 -1.000000
vn 0.000000 0.000000 -1.000000
vn 0.000000 0.000000 -1.000000
vn 0.000000 0.000000 -1.000000
vn 0.000000 0.000000 -1.000000
vn 0.000000 0.000000 -1.000000
vn 0.000000 0.000000 -1.000000
vn 0.000000 0.000000 -1.000000
vn 0.000000 0.000000 -1.000000
vn 0.000000 0.000000 -1.000000
vn 0.000000 0.000000 -1.000000
vn 0.000000 0.000000 -1.000000
vn 0.000000 0.000000 -1.000000
vn 0.000000 0.000000 -1.000000
vn 0.000000 0.000000 -1.000000
vn 0.000000 0.000000 -1.000000
vn 0.000000 0.000000 -1.000000
vn 0.000000 0.000000 -1.000000
vn 0.000000 0.000000 -1.000000
vn 0.000000 0.000000 -1.000000
vn 0.000000 0.000000 -1.000000
vn 0.000000 0.000000 -1.000000
vn 0.000000 0.000000 -1.000000
vn 0.000000 0.000000 -1.000000
vn 0.000000 0.000000 -1.000000
vn 0.000000 0.000000 -1.000000
vn 0.000000 0.000000 -1.000000
vn 0.000000 0.000000 -1.000000
vn 0.000000 0.000000 -1.000000
vn 0.000000 0.000000 -1.000000
vn 0.000000 0.000000 -1.000000
vn 0.000000 0.000000 1.000000
vn 0.000000 0.000000 1.000000
vn 0.000000 0.000000 1.000000
vn 0.000000 0.000000 1.000000
vn 0.000000 0.000000 1.000000
vn 0.000000 0.000000 1.000000
vn 0.000000 0.000000 1.000000
vn 0.000000 0.000000 1.000000
vn 0.000000 0.000000 1.000000
vn 0.000000 0.000000 1.000000
vn 0.000000 0.000000 1.000000
vn 0.000000 0.000000 1.000000
vn 0.000000 0.000000 1.000000
vn 0.000000 0.000000 1.000000
vn 0.000000 0.000000 1.000000
vn 0.000000 0.000000 1.000000
vn 0.000000 0.000000 1.000000
vn 0.000000 0.000000 1.000000
vn 0.000000 0.000000 1.000000
vn 0.000000 0.000000 1.000000
vn 0.000000 0.000000 1.000000
vn 0.000000 0.000000 1.000000
vn 0.000000 0.000000 1.000000
vn 0.000000 0.000000 1.000000
vn 0.000000 0.000000 1.000000
vn 0.000000 0.000000 1.000000
vn 0.000000 0.000000 1.000000
vn 0.000000 0.000000 1.000000
vn 0.000000 0.000000 1.000000
vn 0.000000 0.000000 1.000000
vn 0.000000 0.000000 1.000000
vn 0.000000 0.000000 1.000000
vn 0.000000 0.000000 1.000000
vn 0.000000 0.000000 1.000000
vn 0.000000 0.000000 1.000000
vn 0.000000 0.000000 1.000000
vn 0.000000 0.000000 1.000000
vn 0.000000 0.000000 1.000000
vn 0.000000 0.000000 1.000000
vn 0.000000 0.000000 1.000000
vn 0.000000 0.000000 1.000000
vn 0.000000 1.000000 0.000000
vn 0.000000 1.000000 0.000000
vn 0.000000 1.000000 0.000000
vn 0.213643 0.000000 -0.976912
vn 1.000000 0.000000 0.000000
vn 0.199025 0.979994 0.000000
vn 0.147195 0.724783 -0.673069
vn 0.199025 0.979994 -0.001169
vn 0.199025 0.979994 0.000000
vn 0.195382 0.980727 0.000000
vn 0.195381 0.980727 -0.001147
vn 0.999983 0.000000 -0.005871
vn 0.999983 0.000000 -0.005871
vn 0.999983 0.000000 -0.005871
vn 0.999983 0.000000 -0.005871
vn 0.000000 0.000000 1.000000
vn 0.000000 0.000000 1.000000
vn 0.000000 0.000000 1.000000
vn 0.000000 0.000000 1.000000
vn 0.000000 0.894533 0.447003
vn 0.000000 0.894533 0.447003
vn 0.000000 0.894533 0.447003
vn 0.000000 0.894533 0.447003
vn -0.980830 0.000000 0.194863
vn -0.980830 0.000000 0.194863
vn -0.980830 0.000000 0.194863
vn -0.980830 0.000000 0.194863
vn 0.002815 -0.894754 0.446551
vn 0.002815 -0.894754 0.446551
vn 0.002815 -0.894754 0.446551
vn 0.002815 -0.894754 0.446551
vn 0.980836 0.000000 0.194835
vn 0.980836 0.000000 0.194835
vn 0.980836 0.000000 0.194835
vn 0.980836 0.000000 0.194835
vn 0.000000 0.000000 1.000000
vn 0.000000 0.000000 1.000000
vn 0.000000 0.000000 1.000000
vn 0.000000 0.000000 1.000000
vn 0.000000 0.000000 1.000000
vn 0.000000 0.000000 1.000000
vn 0.000000 0.000000 1.000000
vn 0.000000 0.000000 1.000000
vn 0.000000 1.000000 0.000000
vn 0.000000 1.000000 0.000000
vn 0.000000 1.000000 0.000000
vn 0.000000 1.000000 0.000000
vn 0.000000 0.000000 -1.000000
vn 0.000000 0.000000 -1.000000
vn 0.000000 0.000000 -1.000000
vn 0.000000 0.000000 -1.000000
vn 0.000000 0.000000 -1.000000
vn 0.000000 0.000000 -1.000000
vn 0.000000 0.000000 -1.000000
vn 0.000000 0.000000 -1.000000
vn 0.000000 -1.000000 0.000000
vn 0.000000 -1.000000 0.000000
vn 0.000000 -1.000000 0.000000
vn 0.000000 -1.000000 0.000000
vn 0.993974 -0.109619 0.000000
vn 0.993974 -0.109619 0.000000
vn 0.993974 -0.109619 0.000000
vn 0.993974 -0.109619 0.000000
vn 0.999840 0.017878 0.000000
vn 0.999840 0.017878 0.000000
vn 0.999840 0.017878 0.000000
vn 0.999840 0.017878 0.000000
vn 0.000000 0.000000 1.000000
vn 0.000000 0.000000 1.000000
vn 0.000000 0.000000 1.000000
vn 0.000000 0.000000 1.000000
vn 0.000000 1.000000 0.000000
vn 0.000000 1.000000 0.000000
vn 0.000000 1.000000 0.000000
vn 0.000000 1.000000 0.000000
vn 0.000000 0.000000 -1.000000
vn 0.000000 0.000000 -1.000000
vn 0.000000 0.000000 -1.000000
vn 0.000000 0.000000 -1.000000
vn 1.000000 0.000000 0.000000
vn 1.000000 0.000000 0.000000
vn 1.000000 0.000000 0.000000
vn 1.000000 0.000000 0.000000
vn -1.000000 0.000000 0.000000
vn -1.000000 0.000000 0.000000
vn -1.000000 0.000000 0.000000
vn -1.000000 0.000000 0.000000
vn 0.000000 0.000000 1.000000
vn 0.000000 0.000000 1.000000
vn 0.000000 0.000000 1.000000
vn 0.000000 0.000000 1.000000
vn 0.000000 1.000000 0.000000
vn 0.000000 1.000000 0.000000
vn 0.000000 1.000000 0.000000
vn 0.000000 1.000000 0.000000
vn 0.000000 0.000000 -1.000000
vn 0.000000 0.000000 -1.000000
vn 0.000000 0.000000 -1.000000
vn 0.000000 0.000000 -1.000000
vn 0.000000 -1.000000 0.000000
vn 0.000000 -1.000000 0.000000
vn 0.000000 -1.000000 0.000000
vn 0.000000 -1.000000 0.000000
vn 1.000000 0.000000 0.000000
vn 1.000000 0.000000 0.000000
vn 1.000000 0.000000 0.000000
vn 1.000000 0.000000 0.000000
vn 0.000000 0.000000 1.000000
vn 0.000000 0.000000 1.000000
vn 0.000000 0.000000 1.000000
vn 0.000000 0.000000 1.000000
vn 0.000000 1.000000 0.000000
vn 0.000000 1.000000 0.000000
vn 0.000000 1.000000 0.000000
vn 0.000000 1.000000 0.000000
vn 0.000000 0.000000 -1.000000
vn 0.000000 0.000000 -1.000000
vn 0.000000 0.000000 -1.000000
vn 0.000000 0.000000 -1.000000
vn 0.000000 -1.000000 0.000000
vn 0.000000 -1.000000 0.000000
vn 0.000000 -1.000000 0.000000
vn 0.000000 -1.000000 0.000000
vn 1.000000 0.000000 0.000000
vn 1.000000 0.000000 0.000000
vn 1.000000 0.000000 0.000000
vn 1.000000 0.000000 0.000000
vn 0.000000 0.000000 1.000000
vn 0.000000 0.000000 1.000000
vn 0.000000 0.000000 1.000000
vn 0.000000 0.000000 1.000000
vn 0.000000 1.000000 0.000000
vn 0.000000 1.000000 0.000000
vn 0.000000 1.000000 0.000000
vn 0.000000 1.000000 0.000000
vn 0.000000 0.000000 -1.000000
vn 0.000000 0.000000 -1.000000
vn 0.000000 0.000000 -1.000000
vn 0.000000 0.000000 -1.000000
vn 0.000000 -1.000000 0.000000
vn 0.000000 -1.000000 0.000000
vn 0.000000 -1.000000 0.000000
vn 0.000000 -1.000000 0.000000
vn 1.000000 0.000000 0.000000
vn 1.000000 0.000000 0.000000
vn 1.000000 0.000000 0.000000
vn 1.000000 0.000000 0.000000
vn 0.000000 0.000000 1.000000
vn 0.000000 0.000000 1.000000
vn 0.000000 0.000000 1.000000
vn 0.000000 0.000000 1.000000
vn 0.000000 1.000000 0.000000
vn 0.000000 1.000000 0.000000
vn 0.000000 1.000000 0.000000
vn 0.000000 1.000000 0.000000
vn 0.000000 0.000000 -1.000000
vn 0.000000 0.000000 -1.000000
vn 0.000000 0.000000 -1.000000
vn 0.000000 0.000000 -1.000000
vn 0.000000 -1.000000 0.000000
vn 0.000000 -1.000000 0.000000
vn 0.000000 -1.000000 0.000000
vn 0.000000 -1.000000 0.000000
vn 1.000000 0.000000 0.000000
vn 1.000000 0.000000 0.000000
vn 1.000000 0.000000 0.000000
vn 1.000000 0.000000 0.000000
vn 0.000000 0.000000 1.000000
vn 0.000000 0.000000 1.000000
vn 0.000000 0.000000 1.000000
vn 0.000000 0.000000 1.000000
vn 0.000000 1.000000 0.000000
vn 0.000000 1.000000 0.000000
vn 0.000000 1.000000 0.000000
vn 0.000000 1.000000 0.000000
vn 0.000000 0.000000 -1.000000
vn 0.000000 0.000000 -1.000000
vn 0.000000 0.000000 -1.000000
vn 0.000000 0.000000 -1.000000
vn 0.000000 -1.000000 0.000000
vn 0.000000 -1.000000 0.000000
vn 0.000000 -1.000000 0.000000
vn 0.000000 -1.000000 0.000000
vn 1.000000 0.000000 0.000000
vn 1.000000 0.000000 0.000000
vn 1.000000 0.000000 0.000000
vn 1.000000 0.000000 0.000000
s off
g cassetteplayer_model
usemtl lambert2SG
f 3/1/1 21/2/2 31/3/3 118/4/4
f 42/5/5 43/6/6 32/7/7 33/8/8
f 32/7/9 31/3/10 21/2/11 29/9/12
f 33/8/13 32/7/14 29/9/15 4/10/16
f 30/11/17 43/6/18 42/5/19 6/12/20
f 22/13/21 31/3/22 43/6/23 30/11/24
f 118/4/25 31/3/26 22/13/27 5/14/28
f 7/15/29 18/16/30 114/17/31 115/18/32
f 18/16/33 25/19/34 113/20/35 114/17/36
f 25/19/37 8/21/38 112/22/39 113/20/40
f 113/20/41 112/22/42 2/23/43 26/24/44
f 114/17/45 113/20/46 26/24/47 19/25/48
f 115/18/49 114/17/50 19/25/51 1/26/52
f 33/27/53 34/28/54 41/29/55 42/30/56
f 117/31/57 47/32/58 14/33/59 116/34/60
f 14/33/61 7/35/62 115/36/63 116/34/64
f 118/37/65 5/38/66 47/32/67 117/31/68
f 116/34/69 115/36/70 1/39/71 11/40/72
f 46/41/73 117/31/74 116/34/75 11/40/76
f 3/42/77 118/37/78 117/31/79 46/41/80
f 40/47/81 35/48/82 13/49/83 36/50/84
f 8/51/85 13/49/86 35/48/87 112/52/88
f 9/53/89 34/54/90 33/55/91 4/56/92
f 12/57/93 35/48/94 37/58/95 38/59/96
f 38/59/97 37/58/98 34/54/99 9/53/100
f 35/48/101 40/47/102 37/58/103
f 112/52/104 35/48/105 12/57/106 2/60/107
f 5/61/108 22/62/109 16/63/110 47/64/111
f 17/65/112 18/66/113 7/67/114 14/68/115
f 39/69/116 24/70/117 17/65/118 16/63/119
f 18/66/120 17/65/121 24/70/122 25/71/123
f 16/63/124 22/62/125 30/72/126 23/73/127
f 24/70/128 39/69/129 36/74/130 13/75/131
f 25/71/132 24/70/133 13/75/134 8/76/135
f 23/73/136 30/72/137 6/77/138 10/78/139
f 39/69/140 16/63/141 23/73/142
f 36/74/143 39/69/144 23/73/145 10/78/146
f 16/63/147 17/65/148 14/68/149 47/64/150
f 15/79/151 19/80/152 20/81/153
f 11/82/154 15/79/155 45/83/156 46/84/157
f 20/81/158 19/80/159 26/85/160 27/86/161
f 19/80/162 15/79/163 11/82/164 1/87/165
f 44/88/166 28/89/167 29/90/168 21/91/169
f 27/86/170 26/85/171 2/92/172 12/93/173
f 28/89/174 27/86/175 12/93/176 38/94/177
f 29/90/178 28/89/179 9/95/180 4/96/181
f 28/89/182 38/94/183 9/95/184
f 20/81/185 27/86/186 28/89/187 44/88/188
f 45/83/189 44/88/190 21/91/191
f 43/6/192 31/3/193 32/7/194
f 34/97/195 37/98/196 40/99/197 41/29/198
f 41/29/199 40/99/200 36/100/201 10/101/202
f 42/30/203 41/29/204 10/101/205 6/102/206
f 45/83/207 21/91/208 3/103/209 46/84/210
f 15/104/211 20/105/212 49/44/213 48/43/214
f 20/106/215 44/107/216 50/45/217 49/44/218
f 44/108/219 45/109/220 51/46/221 50/45/222
f 45/110/223 15/111/224 48/43/225 51/46/226
f 60/112/227 61/113/228 55/114/229 54/115/230
f 52/116/231 53/117/232 61/113/233 60/112/234
f 54/118/235 55/114/236 57/119/237 56/120/238
f 56/121/239 57/119/240 62/122/241 63/123/242
f 63/123/243 62/122/244 59/124/245 58/125/246
f 58/126/247 59/124/248 53/117/249 52/127/250
f 61/113/251 62/122/252 57/119/253 55/114/254
f 53/117/255 59/124/256 62/122/257 61/113/258
f 64/128/259 65/129/260 67/130/261 66/131/262
f 66/131/263 67/130/264 69/132/265 68/133/266
f 68/133/267 69/132/268 71/134/269 70/135/270
f 65/136/271 71/137/272 69/132/273 67/130/274
f 70/138/275 64/139/276 66/131/277 68/133/278
f 72/140/279 73/141/280 75/142/281 74/143/282
f 74/144/283 75/142/284 77/145/285 76/146/286
f 76/147/287 77/145/288 79/148/289 78/149/290
f 78/150/291 79/148/292 73/141/293 72/151/294
f 73/141/295 79/148/296 77/145/297 75/142/298
f 80/152/299 81/153/300 83/154/301 82/155/302
f 82/156/303 83/154/304 85/157/305 84/158/306
f 84/159/307 85/157/308 87/160/309 86/161/310
f 86/162/311 87/160/312 81/153/313 80/163/314
f 81/153/315 87/160/316 85/157/317 83/154/318
f 88/164/319 89/165/320 91/166/321 90/167/322
f 90/168/323 91/166/324 93/169/325 92/170/326
f 92/171/327 93/169/328 95/172/329 94/173/330
f 94/174/331 95/172/332 89/165/333 88/175/334
f 89/165/335 95/172/336 93/169/337 91/166/338
f 96/176/339 97/177/340 99/178/341 98/179/342
f 98/180/343 99/178/344 101/181/345 100/182/346
f 100/183/347 101/181/348 103/184/349 102/185/350
f 102/186/351 103/184/352 97/177/353 96/187/354
f 97/177/355 103/184/356 101/181/357 99/178/358
f 104/188/359 105/189/360 107/190/361 106/191/362
f 106/192/363 107/190/364 109/193/365 108/194/366
f 108/195/367 109/193/368 111/196/369 110/197/370
f 110/198/371 111/196/372 105/189/373 104/199/374
f 105/189/375 111/196/376 109/193/377 107/190/378
