# This file uses centimeters as units for non-parametric coordinates.

mtllib mirrorbroken_model_v2.mtl
g default
v 0.000000 1.519663 2.770216
v 0.000000 3.342794 2.830206
v 0.000000 4.355593 2.830206
v 0.000000 5.368392 2.830206
v 0.000000 6.381185 2.830206
v 0.000000 1.230736 2.166232
v 0.000000 2.329996 2.004742
v 0.000000 3.342794 2.004742
v 0.000000 4.355593 2.004742
v 0.000000 5.368392 2.004742
v 0.000000 6.381185 2.004742
v 0.000000 0.823294 1.837199
v 0.000000 1.317203 1.179272
v 0.000000 2.329996 1.179272
v 0.000000 3.342794 1.179272
v 0.000000 4.355593 1.571887
v 0.000000 5.368392 1.179272
v 0.000000 6.381185 0.726054
v 0.000000 0.304404 0.353808
v 0.000000 1.317203 0.353808
v 0.000000 2.329996 0.353808
v 0.000000 3.342794 0.353808
v 0.000000 4.355593 0.353808
v 0.000000 4.876379 0.739781
v 0.000000 6.381185 0.353808
v 0.000000 0.304404 -0.471655
v 0.000000 1.317203 -0.471655
v 0.000000 2.329996 -0.471655
v 0.000000 4.019529 -0.471655
v 0.000000 5.067755 -1.053823
v 0.000000 5.368392 -0.471655
v 0.000000 6.381185 -0.471655
v 0.000000 0.304404 -1.297125
v 0.000000 1.911755 -0.891190
v 0.000000 2.329996 -1.297125
v 0.000000 3.342794 -1.297125
v 0.000000 4.355593 -1.297125
v 0.000000 5.368392 -1.297125
v 0.000000 6.381185 -1.297125
v 0.000000 1.317203 -2.122589
v 0.000000 2.329996 -2.122589
v 0.000000 3.342794 -2.122589
v 0.000000 3.819026 -2.122589
v 0.000000 5.368392 -2.122589
v 0.000000 6.381185 -2.122589
v 0.140823 1.519663 2.770216
v 0.140823 3.342794 2.830206
v 0.140823 2.329996 2.004742
v 0.140823 4.355593 2.830206
v 0.140823 5.368392 2.830206
v 0.140823 6.381185 2.830206
v 0.140823 6.381185 2.004742
v 0.140823 1.230736 2.166232
v 0.140823 1.317203 1.179272
v 0.140823 4.355593 1.571887
v 0.140823 5.368392 1.179272
v 0.140823 6.381185 0.726054
v 0.140823 0.823294 1.837199
v 0.140823 0.304404 0.353808
v 0.140823 3.342794 0.353808
v 0.140823 4.355593 0.353808
v 0.140823 0.304404 -0.471655
v 0.140823 4.019529 -0.471655
v 0.140823 0.304404 -1.297125
v 0.140823 1.911755 -0.891190
v 0.140823 3.342794 -1.297125
v 0.140823 1.317203 -2.122589
v 0.140823 2.329996 -2.122589
v 0.140823 3.342794 -2.122589
v 0.140823 4.876379 0.739781
v 0.140823 6.381185 0.353808
v 0.140823 5.368392 -0.471655
v 0.140823 6.381185 -0.471655
v 0.140823 5.067755 -1.053823
v 0.140823 4.355593 -1.297125
v 0.140823 6.381185 -1.297125
v 0.140823 5.368392 -2.122589
v 0.140823 3.819026 -2.122589
v 0.140823 6.381185 -2.122589
vt 0.969944 0.128294
vt 0.977769 0.302780
vt 0.897579 0.206753
vt 0.898735 0.303723
vt 0.978925 0.399750
vt 0.899891 0.400692
vt 0.980080 0.496720
vt 0.901046 0.497662
vt 0.981235 0.593689
vt 0.902202 0.594632
vt 0.911786 0.101321
vt 0.817389 0.110726
vt 0.818545 0.207696
vt 0.819701 0.304665
vt 0.858447 0.401187
vt 0.822013 0.498604
vt 0.779775 0.596090
vt 0.879818 0.062685
vt 0.737198 0.014699
vt 0.738355 0.111669
vt 0.739512 0.208638
vt 0.740668 0.305607
vt 0.741823 0.402576
vt 0.658166 0.015641
vt 0.659322 0.112611
vt 0.660479 0.209580
vt 0.662405 0.371342
vt 0.579131 0.016584
vt 0.619833 0.170014
vt 0.581444 0.210520
vt 0.582598 0.307490
vt 0.501257 0.114492
vt 0.502410 0.211461
vt 0.503565 0.308431
vt 0.842295 0.706167
vt 0.985820 0.745246
vt 0.887689 0.822846
vt 0.984654 0.824277
vt 0.886522 0.901877
vt 0.858083 0.878158
vt 0.789557 0.900446
vt 0.983488 0.903308
vt 0.885356 0.980908
vt 0.737019 0.978718
vt 0.982321 0.982339
vt 0.181471 0.012405
vt 0.181654 0.025888
vt 0.007009 0.028266
vt 0.006826 0.014783
vt 0.288196 0.010950
vt 0.288380 0.024433
vt 0.307333 0.186271
vt 0.307517 0.199753
vt 0.210550 0.201077
vt 0.210366 0.187594
vt 0.113582 0.202400
vt 0.113398 0.188917
vt 0.016615 0.203724
vt 0.016431 0.190242
vt 0.542270 0.083094
vt 0.542454 0.096577
vt 0.463422 0.097656
vt 0.463238 0.084174
vt 0.340998 0.099328
vt 0.340814 0.085846
vt 0.394571 0.009497
vt 0.394755 0.022979
vt 0.489427 0.008200
vt 0.489611 0.021682
vt 0.234581 0.087295
vt 0.234765 0.100778
vt 0.130767 0.102197
vt 0.130583 0.088714
vt 0.568193 0.007122
vt 0.568377 0.020604
vt 0.173018 0.276407
vt 0.173018 0.289891
vt 0.022543 0.289891
vt 0.022543 0.276407
vt 0.014145 0.103788
vt 0.013961 0.090305
vt 0.319749 0.229957
vt 0.319749 0.243441
vt 0.222772 0.243442
vt 0.222772 0.229958
vt 0.252056 0.276407
vt 0.252056 0.289891
vt 0.331097 0.276407
vt 0.331097 0.289891
vt 0.120566 0.243442
vt 0.120566 0.229958
vt 0.413365 0.063012
vt 0.413181 0.049529
vt 0.571904 0.047366
vt 0.572088 0.060848
vt 0.018361 0.243441
vt 0.018361 0.229957
vt 0.282445 0.064796
vt 0.282261 0.051313
vt 0.185479 0.066119
vt 0.185294 0.052637
vt 0.088512 0.067445
vt 0.088327 0.053961
vt 0.009480 0.068527
vt 0.009295 0.055045
vt 0.411998 0.348217
vt 0.411998 0.361700
vt 0.263247 0.361703
vt 0.263247 0.348219
vt 0.537196 0.348212
vt 0.537197 0.361696
vt 0.184208 0.361702
vt 0.184209 0.348218
vt 0.105168 0.361698
vt 0.105168 0.348215
vt 0.026129 0.361694
vt 0.026130 0.348210
vt 0.599934 0.348210
vt 0.599934 0.361694
vt 0.098554 0.312739
vt 0.098554 0.326223
vt 0.026494 0.326223
vt 0.026494 0.312740
vt 0.341177 0.312740
vt 0.341177 0.326223
vt 0.192824 0.326223
vt 0.192823 0.312740
vt 0.438153 0.312739
vt 0.438153 0.326223
vn -1.000000 0.000000 0.000000
vn -1.000000 0.000000 0.000000
vn -1.000000 0.000000 0.000000
vn -1.000000 0.000000 0.000000
vn -1.000000 0.000000 0.000000
vn -1.000000 0.000000 0.000000
vn -1.000000 0.000000 0.000000
vn -1.000000 0.000000 0.000000
vn -1.000000 0.000000 0.000000
vn -1.000000 0.000000 0.000000
vn -1.000000 0.000000 0.000000
vn -1.000000 0.000000 0.000000
vn -1.000000 0.000000 0.000000
vn -1.000000 0.000000 0.000000
vn -1.000000 0.000000 0.000000
vn -1.000000 0.000000 0.000000
vn -1.000000 0.000000 0.000000
vn -1.000000 0.000000 0.000000
vn -1.000000 0.000000 0.000000
vn -1.000000 0.000000 0.000000
vn -1.000000 0.000000 0.000000
vn -1.000000 0.000000 0.000000
vn -1.000000 0.000000 0.000000
vn -1.000000 0.000000 0.000000
vn -1.000000 0.000000 0.000000
vn -1.000000 0.000000 0.000000
vn -1.000000 0.000000 0.000000
vn -1.000000 0.000000 0.000000
vn -1.000000 0.000000 0.000000
vn -1.000000 0.000000 0.000000
vn -1.000000 0.000000 0.000000
vn -1.000000 0.000000 0.000000
vn -1.000000 0.000000 0.000000
vn -1.000000 0.000000 0.000000
vn -1.000000 0.000000 0.000000
vn -1.000000 0.000000 0.000000
vn -1.000000 0.000000 0.000000
vn -1.000000 0.000000 0.000000
vn -1.000000 0.000000 0.000000
vn -1.000000 0.000000 0.000000
vn -1.000000 0.000000 0.000000
vn -1.000000 0.000000 0.000000
vn -1.000000 0.000000 0.000000
vn -1.000000 0.000000 0.000000
vn -1.000000 0.000000 0.000000
vn -1.000000 0.000000 0.000000
vn -1.000000 0.000000 0.000000
vn -1.000000 0.000000 0.000000
vn -1.000000 0.000000 0.000000
vn -1.000000 0.000000 0.000000
vn -1.000000 0.000000 0.000000
vn -1.000000 0.000000 0.000000
vn -1.000000 0.000000 0.000000
vn -1.000000 0.000000 0.000000
vn -1.000000 0.000000 0.000000
vn -1.000000 0.000000 0.000000
vn -1.000000 0.000000 0.000000
vn -1.000000 0.000000 0.000000
vn -1.000000 0.000000 0.000000
vn -1.000000 0.000000 0.000000
vn -1.000000 0.000000 0.000000
vn -1.000000 0.000000 0.000000
vn -1.000000 0.000000 0.000000
vn -1.000000 0.000000 0.000000
vn -1.000000 0.000000 0.000000
vn -1.000000 0.000000 0.000000
vn -1.000000 0.000000 0.000000
vn -1.000000 0.000000 0.000000
vn -1.000000 0.000000 0.000000
vn -1.000000 0.000000 0.000000
vn -1.000000 0.000000 0.000000
vn -1.000000 0.000000 0.000000
vn -1.000000 0.000000 0.000000
vn -1.000000 0.000000 0.000000
vn -1.000000 0.000000 0.000000
vn -1.000000 0.000000 0.000000
vn -1.000000 0.000000 0.000000
vn -1.000000 0.000000 0.000000
vn -1.000000 0.000000 0.000000
vn -1.000000 0.000000 0.000000
vn -1.000000 0.000000 0.000000
vn -1.000000 0.000000 0.000000
vn -1.000000 0.000000 0.000000
vn -1.000000 0.000000 0.000000
vn -1.000000 0.000000 0.000000
vn -1.000000 0.000000 0.000000
vn -1.000000 0.000000 0.000000
vn -1.000000 0.000000 0.000000
vn -1.000000 0.000000 0.000000
vn -1.000000 0.000000 0.000000
vn -1.000000 0.000000 0.000000
vn -1.000000 0.000000 0.000000
vn -1.000000 0.000000 0.000000
vn -1.000000 0.000000 0.000000
vn -1.000000 0.000000 0.000000
vn -1.000000 0.000000 0.000000
vn -1.000000 0.000000 0.000000
vn -1.000000 0.000000 0.000000
vn -1.000000 0.000000 0.000000
vn -1.000000 0.000000 0.000000
vn -1.000000 0.000000 0.000000
vn -1.000000 0.000000 0.000000
vn -1.000000 0.000000 0.000000
vn -1.000000 0.000000 0.000000
vn -1.000000 0.000000 0.000000
vn -1.000000 0.000000 0.000000
vn -1.000000 0.000000 0.000000
vn -1.000000 0.000000 0.000000
vn -1.000000 0.000000 0.000000
vn -1.000000 0.000000 0.000000
vn -1.000000 0.000000 0.000000
vn -1.000000 0.000000 0.000000
vn -1.000000 0.000000 0.000000
vn -1.000000 0.000000 0.000000
vn -1.000000 0.000000 0.000000
vn -1.000000 0.000000 0.000000
vn -1.000000 0.000000 0.000000
vn -1.000000 0.000000 0.000000
vn -1.000000 0.000000 0.000000
vn -1.000000 0.000000 0.000000
vn -1.000000 0.000000 0.000000
vn -1.000000 0.000000 0.000000
vn -1.000000 0.000000 0.000000
vn -1.000000 0.000000 0.000000
vn -1.000000 0.000000 0.000000
vn -1.000000 0.000000 0.000000
vn -1.000000 0.000000 0.000000
vn -1.000000 0.000000 0.000000
vn -1.000000 0.000000 0.000000
vn -1.000000 0.000000 0.000000
vn -1.000000 0.000000 0.000000
vn -1.000000 0.000000 0.000000
vn -1.000000 0.000000 0.000000
vn -1.000000 0.000000 0.000000
vn -1.000000 0.000000 0.000000
vn -1.000000 0.000000 0.000000
vn -1.000000 0.000000 0.000000
vn -1.000000 0.000000 0.000000
vn -1.000000 0.000000 0.000000
vn -1.000000 0.000000 0.000000
vn -1.000000 0.000000 0.000000
vn -1.000000 0.000000 0.000000
vn -1.000000 0.000000 0.000000
vn -1.000000 0.000000 0.000000
vn -1.000000 0.000000 0.000000
vn -1.000000 0.000000 0.000000
vn -1.000000 0.000000 0.000000
vn -1.000000 0.000000 0.000000
vn -1.000000 0.000000 0.000000
vn -1.000000 0.000000 0.000000
vn -1.000000 0.000000 0.000000
vn -1.000000 0.000000 0.000000
vn -1.000000 0.000000 0.000000
vn -1.000000 0.000000 0.000000
vn -1.000000 0.000000 0.000000
vn -1.000000 0.000000 0.000000
vn 0.000000 -0.032887 0.999459
vn 0.000000 -0.032887 0.999459
vn 0.000000 -0.032887 0.999459
vn 0.000000 -0.032887 0.999459
vn 0.000000 -0.686699 -0.726942
vn 0.000000 -0.686699 -0.726942
vn 0.000000 -0.686699 -0.726942
vn 0.000000 -0.686699 -0.726942
vn 0.000000 0.000000 1.000000
vn 0.000000 0.000000 1.000000
vn 0.000000 0.000000 1.000000
vn 0.000000 0.000000 1.000000
vn 0.000000 0.000000 1.000000
vn 0.000000 0.000000 1.000000
vn 0.000000 0.000000 1.000000
vn 0.000000 0.000000 1.000000
vn 0.000000 0.000000 1.000000
vn 0.000000 0.000000 1.000000
vn 0.000000 0.000000 1.000000
vn 0.000000 0.000000 1.000000
vn 0.000000 1.000000 0.000000
vn 0.000000 1.000000 0.000000
vn 0.000000 1.000000 0.000000
vn 0.000000 1.000000 0.000000
vn 0.000000 1.000000 0.000000
vn 0.000000 1.000000 0.000000
vn 0.000000 1.000000 0.000000
vn 0.000000 1.000000 0.000000
vn 0.000000 0.145348 0.989381
vn 0.000000 0.145348 0.989381
vn 0.000000 0.145348 0.989381
vn 0.000000 0.145348 0.989381
vn 0.000000 -0.996184 -0.087275
vn 0.000000 -0.996184 -0.087275
vn 0.000000 -0.996184 -0.087275
vn 0.000000 -0.996184 -0.087275
vn 0.000000 -0.361445 -0.932393
vn 0.000000 -0.361445 -0.932393
vn 0.000000 -0.361445 -0.932393
vn 0.000000 -0.361445 -0.932393
vn 0.000000 -0.408461 -0.912776
vn 0.000000 -0.408461 -0.912776
vn 0.000000 -0.408461 -0.912776
vn 0.000000 -0.408461 -0.912776
vn 0.000000 0.799730 0.600360
vn 0.000000 0.799730 0.600360
vn 0.000000 0.799730 0.600360
vn 0.000000 0.799730 0.600360
vn 0.000000 -0.943917 0.330182
vn 0.000000 -0.943917 0.330182
vn 0.000000 -0.943917 0.330182
vn 0.000000 -0.943917 0.330182
vn 0.000000 1.000000 0.000000
vn 0.000000 1.000000 0.000000
vn 0.000000 1.000000 0.000000
vn 0.000000 1.000000 0.000000
vn 0.000000 0.000000 -1.000000
vn 0.000000 0.000000 -1.000000
vn 0.000000 0.000000 -1.000000
vn 0.000000 0.000000 -1.000000
vn 0.000000 -1.000000 0.000000
vn 0.000000 -1.000000 0.000000
vn 0.000000 -1.000000 0.000000
vn 0.000000 -1.000000 0.000000
vn 0.000000 -1.000000 0.000000
vn 0.000000 -1.000000 0.000000
vn 0.000000 -1.000000 0.000000
vn 0.000000 -1.000000 0.000000
vn 0.000000 0.773335 0.633998
vn 0.000000 0.773335 0.633998
vn 0.000000 0.773335 0.633998
vn 0.000000 0.773335 0.633998
vn 0.000000 0.244861 -0.969558
vn 0.000000 0.244861 -0.969558
vn 0.000000 0.244861 -0.969558
vn 0.000000 0.244861 -0.969558
vn 0.000000 0.773337 -0.633995
vn 0.000000 0.773337 -0.633995
vn 0.000000 0.773337 -0.633995
vn 0.000000 0.773337 -0.633995
vn 0.000000 -0.900528 0.434799
vn 0.000000 -0.900528 0.434799
vn 0.000000 -0.900528 0.434799
vn 0.000000 -0.900528 0.434799
vn 0.000000 0.000000 -1.000000
vn 0.000000 0.000000 -1.000000
vn 0.000000 0.000000 -1.000000
vn 0.000000 0.000000 -1.000000
vn 0.000000 0.000000 -1.000000
vn 0.000000 0.000000 -1.000000
vn 0.000000 0.000000 -1.000000
vn 0.000000 0.000000 -1.000000
vn 0.000000 1.000000 0.000000
vn 0.000000 1.000000 0.000000
vn 0.000000 1.000000 0.000000
vn 0.000000 1.000000 0.000000
vn 0.000000 0.248451 0.968644
vn 0.000000 0.248451 0.968644
vn 0.000000 0.248451 0.968644
vn 0.000000 0.248451 0.968644
vn 0.000000 -0.926502 -0.376289
vn 0.000000 -0.926502 -0.376289
vn 0.000000 -0.926502 -0.376289
vn 0.000000 -0.926502 -0.376289
vn 0.000000 1.000000 0.000000
vn 0.000000 1.000000 0.000000
vn 0.000000 1.000000 0.000000
vn 0.000000 1.000000 0.000000
vn 0.000000 1.000000 0.000000
vn 0.000000 1.000000 0.000000
vn 0.000000 1.000000 0.000000
vn 0.000000 1.000000 0.000000
vn 0.000000 1.000000 0.000000
vn 0.000000 1.000000 0.000000
vn 0.000000 1.000000 0.000000
vn 0.000000 1.000000 0.000000
vn 0.000000 -0.888519 0.458839
vn 0.000000 -0.888519 0.458839
vn 0.000000 -0.888519 0.458839
vn 0.000000 -0.888519 0.458839
vn 0.000000 -0.323293 0.946299
vn 0.000000 -0.323293 0.946299
vn 0.000000 -0.323293 0.946299
vn 0.000000 -0.323293 0.946299
vn 0.000000 0.000000 -1.000000
vn 0.000000 0.000000 -1.000000
vn 0.000000 0.000000 -1.000000
vn 0.000000 0.000000 -1.000000
vn 0.000000 0.000000 -1.000000
vn 0.000000 0.000000 -1.000000
vn 0.000000 0.000000 -1.000000
vn 0.000000 0.000000 -1.000000
vn 0.000000 -0.838436 0.545000
vn 0.000000 -0.838436 0.545000
vn 0.000000 -0.838436 0.545000
vn 0.000000 -0.838436 0.545000
s off
g mirrorbroken_model
usemtl phong1SG
f 1/1/1 2/2/2 7/3/3
f 7/3/4 2/2/5 8/4/6
f 2/2/7 3/5/8 8/4/9
f 8/4/10 3/5/11 9/6/12
f 3/5/13 4/7/14 9/6/15
f 9/6/16 4/7/17 10/8/18
f 4/7/19 5/9/20 10/8/21
f 10/8/22 5/9/23 11/10/24
f 6/11/25 7/3/26 13/12/27
f 13/12/28 7/3/29 14/13/30
f 7/3/31 8/4/32 14/13/33
f 14/13/34 8/4/35 15/14/36
f 9/6/37 16/15/38 8/4/39
f 8/4/40 16/15/41 15/14/42
f 9/6/43 10/8/44 16/15/45
f 16/15/46 10/8/47 17/16/48
f 10/8/49 11/10/50 17/16/51
f 17/16/52 11/10/53 18/17/54
f 12/18/55 13/12/56 19/19/57
f 19/19/58 13/12/59 20/20/60
f 13/12/61 14/13/62 20/20/63
f 20/20/64 14/13/65 21/21/66
f 14/13/67 15/14/68 21/21/69
f 21/21/70 15/14/71 22/22/72
f 16/15/73 23/23/74 15/14/75
f 15/14/76 23/23/77 22/22/78
f 19/19/79 20/20/80 26/24/81
f 26/24/82 20/20/83 27/25/84
f 20/20/85 21/21/86 27/25/87
f 27/25/88 21/21/89 28/26/90
f 21/21/91 22/22/92 28/26/93
f 28/26/94 22/22/95 29/27/96
f 26/24/97 27/25/98 33/28/99
f 33/28/100 27/25/101 34/29/102
f 27/25/103 28/26/104 34/29/105
f 34/29/106 28/26/107 35/30/108
f 29/27/109 36/31/110 28/26/111
f 28/26/112 36/31/113 35/30/114
f 34/29/115 35/30/116 40/32/117
f 40/32/118 35/30/119 41/33/120
f 35/30/121 36/31/122 41/33/123
f 41/33/124 36/31/125 42/34/126
f 24/35/127 25/36/128 31/37/129
f 31/37/130 25/36/131 32/38/132
f 31/37/133 38/39/134 30/40/135
f 30/40/136 38/39/137 37/41/138
f 31/37/139 32/38/140 38/39/141
f 38/39/142 32/38/143 39/42/144
f 38/39/145 44/43/146 37/41/147
f 37/41/148 44/43/149 43/44/150
f 38/39/151 39/42/152 44/43/153
f 44/43/154 39/42/155 45/45/156
f 1/46/157 46/47/158 47/48/159 2/49/160
f 7/50/161 48/51/162 46/47/163 1/46/164
f 2/52/165 47/53/166 49/54/167 3/55/168
f 3/55/169 49/54/170 50/56/171 4/57/172
f 4/57/173 50/56/174 51/58/175 5/59/176
f 5/60/177 51/61/178 52/62/179 11/63/180
f 11/63/181 52/62/182 57/64/183 18/65/184
f 6/66/185 53/67/186 48/51/187 7/50/188
f 13/68/189 54/69/190 53/67/191 6/66/192
f 17/70/193 56/71/194 55/72/195 16/73/196
f 18/65/197 57/64/198 56/71/199 17/70/200
f 12/74/201 58/75/202 54/69/203 13/68/204
f 19/76/205 59/77/206 58/78/207 12/79/208
f 16/73/209 55/72/210 61/80/211 23/81/212
f 23/82/213 61/83/214 60/84/215 22/85/216
f 26/86/217 62/87/218 59/77/219 19/76/220
f 33/88/221 64/89/222 62/87/223 26/86/224
f 22/85/225 60/84/226 63/90/227 29/91/228
f 34/92/229 65/93/230 64/94/231 33/95/232
f 29/91/233 63/90/234 66/96/235 36/97/236
f 40/98/237 67/99/238 65/93/239 34/92/240
f 41/100/241 68/101/242 67/99/243 40/98/244
f 42/102/245 69/103/246 68/101/247 41/100/248
f 36/104/249 66/105/250 69/103/251 42/102/252
f 24/106/253 70/107/254 71/108/255 25/109/256
f 31/110/257 72/111/258 70/107/259 24/106/260
f 25/109/261 71/108/262 73/112/263 32/113/264
f 32/113/265 73/112/266 76/114/267 39/115/268
f 39/115/269 76/114/270 79/116/271 45/117/272
f 30/118/273 74/119/274 72/111/275 31/110/276
f 37/120/277 75/121/278 74/122/279 30/123/280
f 44/124/281 77/125/282 78/126/283 43/127/284
f 45/128/285 79/129/286 77/125/287 44/124/288
f 43/127/289 78/126/290 75/121/291 37/120/292
