# This file uses centimeters as units for non-parametric coordinates.

mtllib showerhandle_model_v2.mtl
g default
v -0.011280 0.709238 -0.153737
v -0.011280 0.596695 -0.266280
v -0.011280 0.442958 -0.307474
v -0.011280 0.289221 -0.266280
v -0.011280 0.176677 -0.153737
v -0.011280 0.135484 0.000000
v -0.011280 0.176677 0.153737
v -0.011280 0.289221 0.266280
v -0.011280 0.442958 0.307474
v -0.011280 0.596695 0.266280
v -0.011280 0.709238 0.153737
v -0.011280 0.750432 0.000000
v -0.112009 0.709238 -0.153737
v -0.112009 0.596695 -0.266280
v -0.112009 0.442958 -0.307474
v -0.112009 0.289221 -0.266280
v -0.112009 0.176677 -0.153737
v -0.112009 0.135484 0.000000
v -0.112009 0.176677 0.153737
v -0.112009 0.289221 0.266280
v -0.112009 0.442958 0.307474
v -0.112009 0.596695 0.266280
v -0.112009 0.709238 0.153737
v -0.112009 0.750432 0.000000
v -0.040123 0.617670 -0.100870
v -0.040123 0.543828 -0.174713
v -0.040123 0.442958 0.000000
v -0.040123 0.427320 -0.201741
v -0.040123 0.357726 -0.174713
v -0.040123 0.268245 -0.100870
v -0.040123 0.241217 0.000000
v -0.040123 0.268245 0.100870
v -0.040123 0.342088 0.174713
v -0.040123 0.442958 0.201741
v -0.040123 0.543828 0.174713
v -0.040123 0.617670 0.100870
v -0.040123 0.644698 0.000000
v 0.081523 0.427320 -0.201741
v 0.081523 0.357726 -0.174713
v -0.035927 0.442958 0.000000
v 0.069392 0.299714 -0.467795
v 0.069392 0.272313 -0.457154
v 0.092173 0.299714 -0.467795
v 0.092173 0.272313 -0.457154
vt 0.580882 0.258861
vt 0.615732 0.223509
vt 0.603256 0.280917
vt 0.638106 0.245565
vt 0.650582 0.188156
vt 0.672956 0.210212
vt 0.685432 0.152803
vt 0.707806 0.174859
vt 0.716517 0.068957
vt 0.681668 0.104310
vt 0.694143 0.046901
vt 0.659293 0.082254
vt 0.646818 0.139662
vt 0.624443 0.117607
vt 0.611968 0.175016
vt 0.589594 0.152960
vt 0.577118 0.210368
vt 0.554744 0.188313
vt 0.542268 0.245722
vt 0.519894 0.223666
vt 0.507418 0.281074
vt 0.485044 0.259018
vt 0.476332 0.364921
vt 0.511182 0.329568
vt 0.498707 0.386976
vt 0.533556 0.351623
vt 0.546032 0.294215
vt 0.568406 0.316270
vt 0.891555 0.386772
vt 0.907798 0.414978
vt 0.847062 0.431113
vt 0.858632 0.369224
vt 0.802618 0.386724
vt 0.835521 0.371698
vt 0.786350 0.414928
vt 0.786372 0.447474
vt 0.802658 0.475638
vt 0.830828 0.491885
vt 0.863338 0.491882
vt 0.891496 0.475640
vt 0.907771 0.447500
vt 0.769688 0.086865
vt 0.787475 0.101892
vt 0.727946 0.144099
vt 0.841343 0.027197
vt 0.834339 0.021280
vt 0.915778 0.362765
vt 0.940744 0.406220
vt 0.872331 0.337593
vt 0.822007 0.337575
vt 0.778441 0.362691
vt 0.753374 0.406220
vt 0.753451 0.456417
vt 0.778602 0.499831
vt 0.822067 0.524860
vt 0.872212 0.524827
vt 0.915628 0.499755
vt 0.940708 0.456349
vt 0.878199 0.291974
vt 0.883029 0.299767
vt 0.872160 0.295718
vt 0.876990 0.303510
vt 0.532884 0.034173
vt 0.534115 0.034620
vt 0.511368 0.093504
vt 0.547036 0.106440
vt 0.512102 0.191669
vt 0.518782 0.194092
vt 0.991366 0.183962
vt 0.957704 0.234391
vt 0.990278 0.183236
vt 0.926148 0.213327
vt 0.872289 0.288029
vt 0.969972 0.254183
vn -0.000000 0.707107 -0.707107
vn -0.000000 0.707107 -0.707107
vn -0.000000 0.707107 -0.707107
vn -0.000000 0.707107 -0.707107
vn -0.000000 0.707107 -0.707107
vn -0.000000 0.707107 -0.707107
vn -0.000000 0.258821 -0.965925
vn -0.000000 0.258821 -0.965925
vn -0.000000 0.258821 -0.965925
vn -0.000000 0.258821 -0.965925
vn -0.000000 0.258821 -0.965925
vn -0.000000 0.258821 -0.965925
vn 0.000000 -0.258821 -0.965925
vn 0.000000 -0.258821 -0.965925
vn 0.000000 -0.258821 -0.965925
vn 0.000000 -0.258821 -0.965925
vn 0.000000 -0.258821 -0.965925
vn 0.000000 -0.258821 -0.965925
vn 0.000000 -0.707104 -0.707110
vn 0.000000 -0.707104 -0.707110
vn 0.000000 -0.707104 -0.707110
vn 0.000000 -0.707104 -0.707110
vn 0.000000 -0.707104 -0.707110
vn 0.000000 -0.707104 -0.707110
vn 0.000000 -0.965927 -0.258815
vn 0.000000 -0.965927 -0.258815
vn 0.000000 -0.965927 -0.258815
vn 0.000000 -0.965927 -0.258815
vn 0.000000 -0.965927 -0.258815
vn 0.000000 -0.965927 -0.258815
vn 0.000000 -0.965927 0.258815
vn 0.000000 -0.965927 0.258815
vn 0.000000 -0.965927 0.258815
vn 0.000000 -0.965927 0.258815
vn 0.000000 -0.965927 0.258815
vn 0.000000 -0.965927 0.258815
vn 0.000000 -0.707104 0.707110
vn 0.000000 -0.707104 0.707110
vn 0.000000 -0.707104 0.707110
vn 0.000000 -0.707104 0.707110
vn 0.000000 -0.707104 0.707110
vn 0.000000 -0.707104 0.707110
vn 0.000000 -0.258821 0.965925
vn 0.000000 -0.258821 0.965925
vn 0.000000 -0.258821 0.965925
vn 0.000000 -0.258821 0.965925
vn 0.000000 -0.258821 0.965925
vn 0.000000 -0.258821 0.965925
vn 0.000000 0.258821 0.965925
vn 0.000000 0.258821 0.965925
vn 0.000000 0.258821 0.965925
vn 0.000000 0.258821 0.965925
vn 0.000000 0.258821 0.965925
vn 0.000000 0.258821 0.965925
vn 0.000000 0.707107 0.707107
vn 0.000000 0.707107 0.707107
vn 0.000000 0.707107 0.707107
vn 0.000000 0.707107 0.707107
vn 0.000000 0.707107 0.707107
vn 0.000000 0.707107 0.707107
vn 0.000000 0.965925 0.258821
vn 0.000000 0.965925 0.258821
vn 0.000000 0.965925 0.258821
vn 0.000000 0.965925 0.258821
vn 0.000000 0.965925 0.258821
vn 0.000000 0.965925 0.258821
vn -0.000000 0.965925 -0.258821
vn -0.000000 0.965925 -0.258821
vn -0.000000 0.965925 -0.258821
vn -0.000000 0.965925 -0.258821
vn -0.000000 0.965925 -0.258821
vn -0.000000 0.965925 -0.258821
vn 1.000000 0.000000 0.000000
vn 1.000000 0.000000 0.000000
vn 1.000000 0.000000 0.000000
vn 1.000000 0.000000 0.000000
vn 1.000000 0.000000 0.000000
vn 1.000000 0.000000 0.000000
vn 1.000000 0.000000 0.000000
vn 1.000000 0.000000 0.000000
vn 1.000000 0.000000 0.000000
vn 1.000000 0.000000 0.000000
vn 1.000000 0.000000 0.000000
vn 1.000000 0.000000 0.000000
vn 1.000000 0.000000 0.000000
vn 1.000000 0.000000 0.000000
vn 1.000000 0.000000 0.000000
vn 1.000000 0.000000 0.000000
vn 1.000000 0.000000 0.000000
vn 1.000000 0.000000 0.000000
vn 1.000000 0.000000 0.000000
vn 1.000000 0.000000 0.000000
vn 1.000000 0.000000 0.000000
vn 1.000000 0.000000 0.000000
vn 1.000000 0.000000 0.000000
vn 1.000000 0.000000 0.000000
vn 1.000000 0.000000 0.000000
vn 1.000000 0.000000 0.000000
vn 1.000000 0.000000 0.000000
vn 1.000000 0.000000 0.000000
vn 1.000000 0.000000 0.000000
vn 1.000000 0.000000 0.000000
vn 1.000000 0.000000 0.000000
vn 1.000000 0.000000 0.000000
vn 1.000000 0.000000 0.000000
vn 0.976825 0.077487 0.199520
vn 0.967221 0.091931 0.236711
vn 0.855109 0.187690 0.483281
vn 0.967221 0.091931 0.236711
vn 0.976825 0.077487 0.199520
vn 0.999345 0.013096 0.033722
vn 0.999345 0.013096 0.033722
vn 0.976825 0.077487 0.199520
vn 0.999345 0.013096 0.033722
vn 0.962358 -0.192180 0.192180
vn 0.962359 -0.192180 0.192179
vn 0.962359 -0.192180 0.192179
vn 0.962359 -0.192180 0.192179
vn 0.962359 -0.192180 0.192179
vn 0.962359 -0.192180 0.192177
vn 0.962358 -0.070343 0.262523
vn 0.963649 -0.065394 0.259043
vn 0.963649 -0.065394 0.259043
vn 0.963649 -0.065394 0.259043
vn 0.963649 -0.065394 0.259043
vn 0.965248 -0.059058 0.254576
vn 0.959378 0.073019 0.272509
vn 0.962316 0.079445 0.260071
vn 0.962316 0.079445 0.260071
vn 0.962316 0.079445 0.260071
vn 0.962316 0.079445 0.260071
vn 0.967388 0.091700 0.236117
vn 0.962359 0.192178 0.192180
vn 0.965749 0.175949 0.190713
vn 0.965749 0.175949 0.190713
vn 0.965749 0.175949 0.190713
vn 0.965749 0.175949 0.190713
vn 0.969568 0.155827 0.188827
vn 0.962358 0.262523 0.070342
vn 0.962359 0.262522 0.070342
vn 0.962359 0.262522 0.070342
vn 0.962359 0.262522 0.070342
vn 0.962359 0.262522 0.070342
vn 0.962359 0.262521 0.070342
vn 0.962359 0.262522 -0.070341
vn 0.962359 0.262522 -0.070342
vn 0.962359 0.262522 -0.070342
vn 0.962359 0.262522 -0.070342
vn 0.962359 0.262522 -0.070342
vn 0.962358 0.262523 -0.070343
vn 0.962358 0.192179 -0.192181
vn 0.962359 0.192179 -0.192180
vn 0.962359 0.192179 -0.192180
vn 0.962359 0.192179 -0.192180
vn 0.962359 0.192179 -0.192180
vn 0.962359 0.192179 -0.192179
vn 0.962358 0.070343 -0.262523
vn 0.962358 0.070343 -0.262523
vn 0.962358 0.070343 -0.262523
vn 0.962358 0.070343 -0.262523
vn 0.962358 0.070343 -0.262523
vn 0.962358 0.070343 -0.262523
vn 0.962358 -0.070343 -0.262523
vn 0.962358 -0.070343 -0.262523
vn 0.962358 -0.070343 -0.262523
vn 0.962358 -0.070343 -0.262523
vn 0.962358 -0.070343 -0.262523
vn 0.962358 -0.070343 -0.262523
vn 0.962359 -0.192179 -0.192179
vn 0.962359 -0.192180 -0.192179
vn 0.962359 -0.192180 -0.192179
vn 0.962359 -0.192180 -0.192179
vn 0.962359 -0.192180 -0.192179
vn 0.962358 -0.192181 -0.192179
vn 0.962359 -0.262520 -0.070343
vn 0.962359 -0.262521 -0.070342
vn 0.962359 -0.262521 -0.070342
vn 0.962359 -0.262521 -0.070342
vn 0.962359 -0.262521 -0.070342
vn 0.962359 -0.262521 -0.070342
vn 0.962359 -0.262521 0.070343
vn 0.962359 -0.262521 0.070342
vn 0.962359 -0.262521 0.070342
vn 0.962359 -0.262521 0.070342
vn 0.962359 -0.262521 0.070342
vn 0.962359 -0.262520 0.070342
vn 0.000000 -0.362006 -0.932176
vn 0.000000 -0.362006 -0.932176
vn 0.000000 -0.362006 -0.932176
vn 0.000000 -0.362006 -0.932176
vn 0.000000 -0.362006 -0.932176
vn 0.000000 -0.362006 -0.932176
vn -0.000000 0.997009 -0.077283
vn -0.000000 0.997009 -0.077283
vn -0.000000 0.957070 -0.289857
vn -0.000000 0.957070 -0.289857
vn -0.000000 0.997009 -0.077283
vn -0.000000 0.951619 -0.307281
vn -0.000000 0.957070 -0.289857
vn -0.000000 0.951619 -0.307281
vn -0.000000 0.901655 -0.432456
vn -0.000000 0.901655 -0.432456
vn -0.000000 0.951619 -0.307281
vn -0.000000 0.901655 -0.432456
vn 0.000000 -0.898756 0.438449
vn 0.000000 -0.936401 0.350933
vn 0.000000 -0.898756 0.438449
vn 0.000000 -0.936401 0.350933
vn 0.000000 -0.939100 0.343643
vn 0.000000 -0.898756 0.438449
vn 0.000000 -0.936401 0.350933
vn 0.000000 -0.957189 0.289464
vn 0.000000 -0.939100 0.343643
vn 0.000000 -0.939100 0.343643
vn 0.000000 -0.957189 0.289464
vn 0.000000 -0.957189 0.289464
vn -0.937176 -0.126294 -0.325193
vn -0.937176 -0.126292 -0.325194
vn -0.937176 -0.126292 -0.325194
vn -0.937176 -0.126292 -0.325194
vn -0.937176 -0.126292 -0.325194
vn -0.937176 -0.126288 -0.325196
s off
g showerHandle_model
usemtl initialShadingGroup
f 1/1/1 2/2/2 13/3/3
f 13/3/4 2/2/5 14/4/6
f 2/2/7 3/5/8 14/4/9
f 14/4/10 3/5/11 15/6/12
f 3/5/13 4/7/14 15/6/15
f 15/6/16 4/7/17 16/8/18
f 4/9/19 5/10/20 16/11/21
f 16/11/22 5/10/23 17/12/24
f 5/10/25 6/13/26 17/12/27
f 17/12/28 6/13/29 18/14/30
f 6/13/31 7/15/32 18/14/33
f 18/14/34 7/15/35 19/16/36
f 7/15/37 8/17/38 19/16/39
f 19/16/40 8/17/41 20/18/42
f 8/17/43 9/19/44 20/18/45
f 20/18/46 9/19/47 21/20/48
f 9/19/49 10/21/50 21/20/51
f 21/20/52 10/21/53 22/22/54
f 10/23/55 11/24/56 22/25/57
f 22/25/58 11/24/59 23/26/60
f 11/24/61 12/27/62 23/26/63
f 23/26/64 12/27/65 24/28/66
f 12/27/67 1/1/68 24/28/69
f 24/28/70 1/1/71 13/3/72
f 26/29/73 25/30/74 27/31/75
f 28/32/76 26/29/77 27/31/78
f 30/33/79 29/34/80 27/31/81
f 31/35/82 30/33/83 27/31/84
f 32/36/85 31/35/86 27/31/87
f 33/37/88 32/36/89 27/31/90
f 34/38/91 33/37/92 27/31/93
f 35/39/94 34/38/95 27/31/96
f 36/40/97 35/39/98 27/31/99
f 37/41/100 36/40/101 27/31/102
f 25/30/103 37/41/104 27/31/105
f 39/42/106 38/43/107 40/44/108
f 38/43/109 39/42/110 43/45/111
f 43/45/112 39/42/113 44/46/114
f 2/47/115 1/48/116 26/29/117
f 26/29/118 1/48/119 25/30/120
f 2/47/121 26/29/122 3/49/123
f 3/49/124 26/29/125 28/32/126
f 3/49/127 28/32/128 4/50/129
f 4/50/130 28/32/131 29/34/132
f 5/51/133 4/50/134 30/33/135
f 30/33/136 4/50/137 29/34/138
f 6/52/139 5/51/140 31/35/141
f 31/35/142 5/51/143 30/33/144
f 7/53/145 6/52/146 32/36/147
f 32/36/148 6/52/149 31/35/150
f 8/54/151 7/53/152 33/37/153
f 33/37/154 7/53/155 32/36/156
f 9/55/157 8/54/158 34/38/159
f 34/38/160 8/54/161 33/37/162
f 10/56/163 9/55/164 35/39/165
f 35/39/166 9/55/167 34/38/168
f 11/57/169 10/56/170 36/40/171
f 36/40/172 10/56/173 35/39/174
f 12/58/175 11/57/176 37/41/177
f 37/41/178 11/57/179 36/40/180
f 1/48/181 12/58/182 25/30/183
f 25/30/184 12/58/185 37/41/186
f 42/59/187 41/60/188 44/61/189
f 44/61/190 41/60/191 43/62/192
f 27/63/193 40/64/194 28/65/195
f 28/65/196 40/64/197 38/66/198
f 28/65/199 38/66/200 41/67/201
f 41/67/202 38/66/203 43/68/204
f 27/69/205 29/70/206 40/71/207
f 29/70/208 39/72/209 40/71/210
f 29/70/211 42/59/212 39/72/213
f 39/72/214 42/59/215 44/73/216
f 29/70/217 28/74/218 42/59/219
f 42/59/220 28/74/221 41/60/222
