# This file uses centimeters as units for non-parametric coordinates.

mtllib showerhead_model_v2.mtl
g default
v 0.015751 3.342850 -0.138138
v 0.015751 3.241726 -0.239262
v 0.015751 3.103588 -0.276276
v 0.015751 2.965450 -0.239262
v 0.015751 2.864326 -0.138138
v 0.015751 2.827312 0.000000
v 0.015751 2.864326 0.138138
v 0.015751 2.965450 0.239262
v 0.015751 3.103588 0.276276
v 0.015751 3.241726 0.239262
v 0.015751 3.342850 0.138138
v 0.015751 3.379864 0.000000
v -0.100870 3.445261 -0.197265
v -0.100870 3.300853 -0.341673
v -0.100870 3.103588 -0.394530
v -0.100870 2.906323 -0.341673
v -0.100870 2.761915 -0.197265
v -0.100870 2.709058 0.000000
v -0.100870 2.761915 0.197265
v -0.100870 2.906323 0.341673
v -0.100870 3.103588 0.394530
v -0.100870 3.300853 0.341673
v -0.100870 3.445261 0.197265
v -0.100870 3.498118 0.000000
v 0.015751 3.214024 -0.063760
v 0.015751 3.167348 -0.110436
v 0.015751 3.103588 -0.127521
v 0.015751 3.039828 -0.110436
v 0.015751 2.993152 -0.063760
v 0.015751 2.976067 0.000000
v 0.015751 2.993152 0.063760
v 0.015751 3.039828 0.110436
v 0.015751 3.103588 0.127521
v 0.015751 3.167348 0.110436
v 0.015751 3.214024 0.063760
v 0.015751 3.231109 0.000000
v 0.324951 3.122117 -0.068826
v 0.287404 3.090655 -0.113981
v 0.237806 3.048642 -0.128594
v 0.189448 3.007336 -0.108751
v 0.155287 2.977803 -0.059768
v 0.144475 2.967958 0.005230
v 0.159911 2.980438 0.068826
v 0.197457 3.011900 0.113981
v 0.247054 3.053913 0.128594
v 0.295413 3.095219 0.108751
v 0.329575 3.124752 0.059768
v 0.340386 3.134597 -0.005230
v 0.857511 2.783032 -0.142603
v 0.780492 2.722652 -0.224886
v 0.707162 2.647080 -0.001450
v 0.683825 2.642022 -0.247300
v 0.593411 2.562748 -0.203838
v 0.533477 2.506069 -0.106146
v 0.520081 2.487175 0.019598
v 0.556814 2.511127 0.139703
v 0.633833 2.571507 0.221986
v 0.730500 2.652137 0.244399
v 0.820914 2.731412 0.200937
v 0.880849 2.788090 0.103246
v 0.894244 2.806984 -0.022498
vt 0.473041 0.692359
vt 0.467765 0.717031
vt 0.445302 0.680195
vt 0.437569 0.717831
vt 0.473972 0.741295
vt 0.447087 0.755012
vt 0.490165 0.760374
vt 0.471763 0.784197
vt 0.513190 0.770584
vt 0.506370 0.799718
vt 0.538846 0.770085
vt 0.543662 0.800071
vt 0.442261 0.840154
vt 0.431895 0.816586
vt 0.471947 0.831565
vt 0.455283 0.797341
vt 0.412271 0.800729
vt 0.425206 0.773432
vt 0.387822 0.795298
vt 0.387738 0.765116
vt 0.363483 0.801118
vt 0.350550 0.773936
vt 0.343969 0.817043
vt 0.321063 0.797790
vt 0.332818 0.840154
vt 0.303892 0.830895
vt 0.489378 0.672459
vt 0.468297 0.649862
vt 0.196557 0.678622
vt 0.180100 0.695079
vt 0.157619 0.656141
vt 0.202581 0.656141
vt 0.196557 0.633661
vt 0.180100 0.617203
vt 0.157619 0.611180
vt 0.158673 0.478260
vt 0.168557 0.499330
vt 0.124297 0.507240
vt 0.139577 0.464955
vt 0.116387 0.462980
vt 0.095317 0.472865
vt 0.082012 0.491960
vt 0.080037 0.515150
vt 0.157619 0.701102
vt 0.494973 0.716625
vt 0.497240 0.704374
vt 0.498242 0.728802
vt 0.506452 0.738462
vt 0.517957 0.743725
vt 0.530367 0.743567
vt 0.410238 0.832742
vt 0.415174 0.843793
vt 0.400335 0.825182
vt 0.387995 0.822593
vt 0.375668 0.825551
vt 0.365772 0.833435
vt 0.360305 0.844576
vt 0.504867 0.694977
vt 0.334868 0.488426
vt 0.346188 0.492604
vt 0.306505 0.531844
vt 0.313589 0.542433
vt 0.217522 0.606490
vt 0.229959 0.625178
vt 0.323649 0.485471
vt 0.300369 0.520172
vt 0.208031 0.587401
vt 0.313151 0.481991
vt 0.294098 0.508087
vt 0.199810 0.568810
vt 0.303855 0.476141
vt 0.287154 0.496369
vt 0.190219 0.550934
vt 0.294887 0.468290
vt 0.279191 0.486286
vt 0.053711 0.693537
vt 0.055559 0.669719
vt 0.065616 0.693537
vt 0.067947 0.666665
vt 0.076515 0.695178
vt 0.080522 0.661900
vt 0.030833 0.559777
vt 0.049077 0.550158
vt 0.086870 0.699296
vt 0.092817 0.656585
vt 0.067569 0.540733
vt 0.097521 0.704134
vt 0.104835 0.651695
vt 0.087928 0.533284
vt 0.109041 0.708007
vt 0.116983 0.648446
vt 0.110212 0.529246
vt 0.121137 0.710008
vt 0.129332 0.647803
vt 0.133595 0.528915
vt 0.356843 0.498603
vt 0.322411 0.551213
vt 0.245562 0.642604
vt 0.177848 0.532997
vt 0.010737 0.568471
vn 0.699729 0.505163 -0.505163
vn 0.699729 0.505163 -0.505163
vn 0.699729 0.505163 -0.505163
vn 0.699729 0.505163 -0.505163
vn 0.699729 0.505163 -0.505163
vn 0.699729 0.505163 -0.505163
vn 0.699729 0.184903 -0.690066
vn 0.699729 0.184903 -0.690066
vn 0.699729 0.184903 -0.690066
vn 0.699729 0.184903 -0.690066
vn 0.699729 0.184903 -0.690066
vn 0.699729 0.184903 -0.690066
vn 0.699729 -0.184903 -0.690066
vn 0.699729 -0.184903 -0.690066
vn 0.699729 -0.184903 -0.690066
vn 0.699729 -0.184903 -0.690066
vn 0.699729 -0.184903 -0.690066
vn 0.699729 -0.184902 -0.690066
vn 0.699729 -0.505163 -0.505163
vn 0.699729 -0.505163 -0.505163
vn 0.699729 -0.505163 -0.505163
vn 0.699729 -0.505163 -0.505163
vn 0.699729 -0.505163 -0.505163
vn 0.699729 -0.505163 -0.505163
vn 0.699729 -0.690066 -0.184903
vn 0.699729 -0.690066 -0.184903
vn 0.699729 -0.690066 -0.184903
vn 0.699729 -0.690066 -0.184903
vn 0.699729 -0.690066 -0.184903
vn 0.699728 -0.690066 -0.184902
vn 0.699728 -0.690066 0.184903
vn 0.699729 -0.690066 0.184903
vn 0.699729 -0.690066 0.184903
vn 0.699729 -0.690066 0.184903
vn 0.699729 -0.690066 0.184903
vn 0.699729 -0.690066 0.184902
vn 0.699729 -0.505163 0.505163
vn 0.699729 -0.505163 0.505163
vn 0.699729 -0.505163 0.505163
vn 0.699729 -0.505163 0.505163
vn 0.699729 -0.505163 0.505163
vn 0.699729 -0.505163 0.505163
vn 0.699729 -0.184903 0.690066
vn 0.699729 -0.184903 0.690066
vn 0.699729 -0.184903 0.690066
vn 0.699729 -0.184903 0.690066
vn 0.699729 -0.184903 0.690066
vn 0.699729 -0.184903 0.690066
vn 0.699729 0.184903 0.690066
vn 0.699729 0.184903 0.690066
vn 0.699729 0.184903 0.690066
vn 0.699729 0.184903 0.690066
vn 0.699729 0.184903 0.690066
vn 0.699729 0.184903 0.690066
vn 0.699729 0.505163 0.505163
vn 0.699729 0.505163 0.505163
vn 0.699729 0.505163 0.505163
vn 0.699729 0.505163 0.505163
vn 0.699729 0.505163 0.505163
vn 0.699729 0.505163 0.505163
vn 0.699729 0.690066 0.184903
vn 0.699729 0.690066 0.184903
vn 0.699729 0.690066 0.184903
vn 0.699729 0.690066 0.184903
vn 0.699729 0.690066 0.184903
vn 0.699728 0.690066 0.184902
vn 0.699728 0.690066 -0.184903
vn 0.699729 0.690066 -0.184903
vn 0.699729 0.690066 -0.184903
vn 0.699729 0.690066 -0.184903
vn 0.699729 0.690066 -0.184903
vn 0.699729 0.690066 -0.184902
vn 0.646082 -0.761901 -0.045655
vn 0.646080 -0.761903 -0.045656
vn 0.646084 -0.761900 -0.045657
vn 0.646083 -0.761900 -0.045654
vn 0.646082 -0.761901 -0.045655
vn 0.646084 -0.761900 -0.045657
vn 0.646086 -0.761898 -0.045657
vn 0.646083 -0.761900 -0.045654
vn 0.646084 -0.761900 -0.045657
vn 0.646088 -0.761896 -0.045656
vn 0.646086 -0.761898 -0.045657
vn 0.646084 -0.761900 -0.045657
vn 0.646086 -0.761898 -0.045654
vn 0.646088 -0.761896 -0.045656
vn 0.646084 -0.761900 -0.045657
vn 0.646085 -0.761899 -0.045660
vn 0.646086 -0.761898 -0.045654
vn 0.646084 -0.761900 -0.045657
vn 0.646084 -0.761899 -0.045661
vn 0.646085 -0.761899 -0.045660
vn 0.646084 -0.761900 -0.045657
vn 0.646085 -0.761898 -0.045661
vn 0.646084 -0.761899 -0.045661
vn 0.646084 -0.761900 -0.045657
vn 0.646083 -0.761900 -0.045659
vn 0.646085 -0.761898 -0.045661
vn 0.646084 -0.761900 -0.045657
vn 0.646081 -0.761902 -0.045657
vn 0.646083 -0.761900 -0.045659
vn 0.646084 -0.761900 -0.045657
vn 0.646081 -0.761902 -0.045656
vn 0.646081 -0.761902 -0.045657
vn 0.646084 -0.761900 -0.045657
vn 0.646080 -0.761903 -0.045656
vn 0.646081 -0.761902 -0.045656
vn 0.646084 -0.761900 -0.045657
vn 1.000000 0.000000 0.000000
vn 1.000000 0.000000 0.000000
vn 1.000000 0.000000 0.000000
vn 1.000000 0.000000 0.000000
vn 1.000000 0.000000 0.000000
vn 1.000000 0.000000 0.000000
vn 1.000000 0.000000 0.000000
vn 1.000000 0.000000 0.000000
vn 1.000000 0.000000 0.000000
vn 1.000000 0.000000 0.000000
vn 1.000000 0.000000 0.000000
vn 1.000000 0.000000 0.000000
vn 1.000000 0.000000 0.000000
vn 1.000000 0.000000 0.000000
vn 1.000000 0.000000 0.000000
vn 1.000000 0.000000 0.000000
vn 1.000000 0.000000 0.000000
vn 1.000000 0.000000 0.000000
vn 1.000000 0.000000 0.000000
vn 1.000000 0.000000 0.000000
vn 1.000000 0.000000 0.000000
vn 1.000000 0.000000 0.000000
vn 1.000000 0.000000 0.000000
vn 1.000000 0.000000 0.000000
vn 1.000000 0.000000 0.000000
vn 1.000000 0.000000 0.000000
vn 1.000000 0.000000 0.000000
vn 1.000000 0.000000 0.000000
vn 1.000000 0.000000 0.000000
vn 1.000000 0.000000 0.000000
vn 1.000000 0.000000 0.000000
vn 1.000000 0.000000 0.000000
vn 1.000000 0.000000 0.000000
vn 1.000000 0.000000 0.000000
vn 1.000000 0.000000 0.000000
vn 1.000000 0.000000 0.000000
vn 1.000000 0.000000 0.000000
vn 1.000000 0.000000 0.000000
vn 1.000000 0.000000 0.000000
vn 1.000000 0.000000 0.000000
vn 1.000000 0.000000 0.000000
vn 1.000000 0.000000 0.000000
vn 1.000000 0.000000 0.000000
vn 1.000000 0.000000 0.000000
vn 1.000000 0.000000 0.000000
vn 1.000000 0.000000 0.000000
vn 1.000000 0.000000 0.000000
vn 1.000000 0.000000 0.000000
vn 1.000000 0.000000 0.000000
vn 1.000000 0.000000 0.000000
vn 1.000000 0.000000 0.000000
vn 1.000000 0.000000 0.000000
vn 1.000000 0.000000 0.000000
vn 1.000000 0.000000 0.000000
vn 1.000000 0.000000 0.000000
vn 1.000000 0.000000 0.000000
vn 1.000000 0.000000 0.000000
vn 1.000000 0.000000 0.000000
vn 1.000000 0.000000 0.000000
vn 1.000000 0.000000 0.000000
vn 1.000000 0.000000 0.000000
vn 1.000000 0.000000 0.000000
vn 1.000000 0.000000 0.000000
vn 1.000000 0.000000 0.000000
vn 1.000000 0.000000 0.000000
vn 1.000000 0.000000 0.000000
vn 1.000000 0.000000 0.000000
vn 1.000000 0.000000 0.000000
vn 1.000000 0.000000 0.000000
vn 1.000000 0.000000 0.000000
vn 1.000000 0.000000 0.000000
vn 1.000000 0.000000 0.000000
vn 0.187043 0.694628 -0.694627
vn 0.194904 0.706237 -0.680619
vn 0.258602 0.670804 -0.695088
vn 0.258602 0.670804 -0.695088
vn 0.194904 0.706237 -0.680619
vn 0.287429 0.638309 -0.714106
vn 0.258602 0.670804 -0.695088
vn 0.287429 0.638309 -0.714106
vn 0.300865 0.624632 -0.720635
vn 0.300865 0.624632 -0.720635
vn 0.287429 0.638309 -0.714106
vn 0.293173 0.618985 -0.728634
vn 0.059273 0.258372 -0.964225
vn 0.060428 0.260435 -0.963599
vn 0.039225 0.285327 -0.957627
vn 0.039225 0.285327 -0.957627
vn 0.060428 0.260435 -0.963599
vn 0.009130 0.283850 -0.958825
vn 0.039225 0.285327 -0.957627
vn 0.009130 0.283850 -0.958825
vn 0.002188 0.286631 -0.958039
vn 0.002188 0.286631 -0.958039
vn 0.009130 0.283850 -0.958825
vn -0.008848 0.277653 -0.960641
vn -0.039016 -0.258629 -0.965189
vn -0.065661 -0.303839 -0.950458
vn -0.225129 -0.168700 -0.959613
vn -0.225129 -0.168700 -0.959613
vn -0.065661 -0.303839 -0.950458
vn -0.315454 -0.126469 -0.940476
vn -0.225129 -0.168700 -0.959613
vn -0.315454 -0.126469 -0.940476
vn -0.337854 -0.102375 -0.935614
vn -0.337854 -0.102375 -0.935614
vn -0.315454 -0.126469 -0.940476
vn -0.349349 -0.111607 -0.930322
vn -0.057457 -0.705939 -0.705938
vn -0.104341 -0.759374 -0.642233
vn -0.459857 -0.554619 -0.693491
vn -0.459857 -0.554619 -0.693491
vn -0.104341 -0.759374 -0.642233
vn -0.591405 -0.468374 -0.656403
vn -0.459857 -0.554619 -0.693491
vn -0.591405 -0.468374 -0.656403
vn -0.622923 -0.430917 -0.652900
vn -0.622923 -0.430917 -0.652900
vn -0.591405 -0.468374 -0.656403
vn -0.631444 -0.436702 -0.640757
vn -0.050270 -0.964703 -0.258497
vn -0.077984 -0.974507 -0.210368
vn -0.077984 -0.974507 -0.210367
vn -0.077984 -0.974507 -0.210367
vn -0.077984 -0.974507 -0.210368
vn -0.103143 -0.980766 -0.165710
vn -0.071184 -0.963474 0.258168
vn -0.082765 -0.968499 0.234862
vn -0.082765 -0.968499 0.234862
vn -0.082765 -0.968499 0.234862
vn -0.082765 -0.968499 0.234862
vn -0.093268 -0.972486 0.213478
vn -0.086881 -0.704434 0.704432
vn -0.435532 -0.510955 0.741105
vn -0.109308 -0.734540 0.669703
vn -0.109308 -0.734540 0.669703
vn -0.435532 -0.510955 0.741105
vn -0.524427 -0.395310 0.754126
vn -0.435532 -0.510955 0.741105
vn -0.551816 -0.357279 0.753559
vn -0.524427 -0.395310 0.754126
vn -0.524427 -0.395310 0.754126
vn -0.551816 -0.357279 0.753559
vn -0.542092 -0.349762 0.764070
vn -0.058525 -0.258382 0.964268
vn -0.189838 -0.113642 0.975216
vn -0.059765 -0.260734 0.963559
vn -0.059765 -0.260734 0.963559
vn -0.189838 -0.113642 0.975216
vn -0.225085 -0.029834 0.973882
vn -0.189838 -0.113642 0.975216
vn -0.241114 -0.005436 0.970482
vn -0.225085 -0.029834 0.973882
vn -0.225085 -0.029834 0.973882
vn -0.241114 -0.005436 0.970482
vn -0.229417 0.004491 0.973318
vn 0.051039 0.258489 0.964665
vn 0.074285 0.334245 0.939554
vn 0.072822 0.300710 0.950931
vn 0.072822 0.300710 0.950931
vn 0.074285 0.334245 0.939554
vn 0.094482 0.371204 0.923732
vn 0.074285 0.334245 0.939554
vn 0.094618 0.375208 0.922099
vn 0.094482 0.371204 0.923732
vn 0.094482 0.371204 0.923732
vn 0.094618 0.375208 0.922099
vn 0.104656 0.383664 0.917523
vn 0.183467 0.695105 0.695104
vn 0.282609 0.701545 0.654191
vn 0.204434 0.728733 0.653571
vn 0.204434 0.728733 0.653571
vn 0.282609 0.701545 0.654191
vn 0.344912 0.693684 0.632327
vn 0.282609 0.701545 0.654191
vn 0.363810 0.682110 0.634325
vn 0.344912 0.693684 0.632327
vn 0.344912 0.693684 0.632327
vn 0.363810 0.682110 0.634325
vn 0.370104 0.686819 0.625542
vn 0.267900 0.930617 0.249364
vn 0.388386 0.895781 0.216177
vn 0.275536 0.936034 0.218907
vn 0.275536 0.936034 0.218907
vn 0.388386 0.895781 0.216177
vn 0.470841 0.861223 0.191320
vn 0.388386 0.895781 0.216177
vn 0.502383 0.843327 0.190818
vn 0.470841 0.861223 0.191320
vn 0.470841 0.861223 0.191320
vn 0.502383 0.843327 0.190818
vn 0.504906 0.844067 0.180613
vn 0.272192 0.929454 -0.249052
vn 0.272271 0.929505 -0.248776
vn 0.381217 0.885272 -0.266396
vn 0.381217 0.885272 -0.266396
vn 0.272271 0.929505 -0.248776
vn 0.450499 0.843273 -0.293158
vn 0.381217 0.885272 -0.266396
vn 0.450499 0.843273 -0.293158
vn 0.480575 0.824077 -0.299908
vn 0.480575 0.824077 -0.299908
vn 0.450499 0.843273 -0.293158
vn 0.476876 0.822534 -0.309882
vn -0.765719 -0.604753 -0.218972
vn -0.773061 -0.605417 -0.189331
vn -0.773061 -0.605417 -0.189331
vn -0.773061 -0.605417 -0.189331
vn -0.773061 -0.605417 -0.189331
vn -0.776622 -0.605540 -0.173724
vn -0.756556 -0.582148 0.297871
vn -0.747395 -0.578362 0.326954
vn -0.747395 -0.578362 0.326954
vn -0.747395 -0.578362 0.326954
vn -0.747395 -0.578362 0.326954
vn -0.742355 -0.576178 0.341947
s off
g showerHead_model
usemtl initialShadingGroup
f 1/1/1 2/2/2 13/3/3
f 13/3/4 2/2/5 14/4/6
f 2/2/7 3/5/8 14/4/9
f 14/4/10 3/5/11 15/6/12
f 3/5/13 4/7/14 15/6/15
f 15/6/16 4/7/17 16/8/18
f 4/7/19 5/9/20 16/8/21
f 16/8/22 5/9/23 17/10/24
f 5/9/25 6/11/26 17/10/27
f 17/10/28 6/11/29 18/12/30
f 6/13/31 7/14/32 18/15/33
f 18/15/34 7/14/35 19/16/36
f 7/14/37 8/17/38 19/16/39
f 19/16/40 8/17/41 20/18/42
f 8/17/43 9/19/44 20/18/45
f 20/18/46 9/19/47 21/20/48
f 9/19/49 10/21/50 21/20/51
f 21/20/52 10/21/53 22/22/54
f 10/21/55 11/23/56 22/22/57
f 22/22/58 11/23/59 23/24/60
f 11/23/61 12/25/62 23/24/63
f 23/24/64 12/25/65 24/26/66
f 12/27/67 1/1/68 24/28/69
f 24/28/70 1/1/71 13/3/72
f 50/29/73 49/30/74 51/31/75
f 52/32/76 50/29/77 51/31/78
f 53/33/79 52/32/80 51/31/81
f 54/34/82 53/33/83 51/31/84
f 55/35/85 54/34/86 51/31/87
f 56/36/88 55/37/89 51/38/90
f 57/39/91 56/36/92 51/38/93
f 58/40/94 57/39/95 51/38/96
f 59/41/97 58/40/98 51/38/99
f 60/42/100 59/41/101 51/38/102
f 61/43/103 60/42/104 51/38/105
f 49/30/106 61/44/107 51/31/108
f 2/2/109 1/1/110 26/45/111
f 26/45/112 1/1/113 25/46/114
f 3/5/115 2/2/116 27/47/117
f 27/47/118 2/2/119 26/45/120
f 4/7/121 3/5/122 28/48/123
f 28/48/124 3/5/125 27/47/126
f 5/9/127 4/7/128 29/49/129
f 29/49/130 4/7/131 28/48/132
f 6/11/133 5/9/134 30/50/135
f 30/50/136 5/9/137 29/49/138
f 7/14/139 6/13/140 31/51/141
f 31/51/142 6/13/143 30/52/144
f 8/17/145 7/14/146 32/53/147
f 32/53/148 7/14/149 31/51/150
f 9/19/151 8/17/152 33/54/153
f 33/54/154 8/17/155 32/53/156
f 10/21/157 9/19/158 34/55/159
f 34/55/160 9/19/161 33/54/162
f 11/23/163 10/21/164 35/56/165
f 35/56/166 10/21/167 34/55/168
f 12/25/169 11/23/170 36/57/171
f 36/57/172 11/23/173 35/56/174
f 1/1/175 12/27/176 25/46/177
f 25/46/178 12/27/179 36/58/180
f 26/59/181 25/60/182 38/61/183
f 38/61/184 25/60/185 37/62/186
f 38/61/187 37/62/188 50/63/189
f 50/63/190 37/62/191 49/64/192
f 27/65/193 26/59/194 39/66/195
f 39/66/196 26/59/197 38/61/198
f 39/66/199 38/61/200 52/67/201
f 52/67/202 38/61/203 50/63/204
f 28/68/205 27/65/206 40/69/207
f 40/69/208 27/65/209 39/66/210
f 40/69/211 39/66/212 53/70/213
f 53/70/214 39/66/215 52/67/216
f 29/71/217 28/68/218 41/72/219
f 41/72/220 28/68/221 40/69/222
f 41/72/223 40/69/224 54/73/225
f 54/73/226 40/69/227 53/70/228
f 30/74/229 29/71/230 42/75/231
f 42/75/232 29/71/233 41/72/234
f 30/76/235 42/77/236 31/78/237
f 31/78/238 42/77/239 43/79/240
f 31/78/241 43/79/242 32/80/243
f 32/80/244 43/79/245 44/81/246
f 43/79/247 56/82/248 44/81/249
f 44/81/250 56/82/251 57/83/252
f 32/80/253 44/81/254 33/84/255
f 33/84/256 44/81/257 45/85/258
f 44/81/259 57/83/260 45/85/261
f 45/85/262 57/83/263 58/86/264
f 33/84/265 45/85/266 34/87/267
f 34/87/268 45/85/269 46/88/270
f 45/85/271 58/86/272 46/88/273
f 46/88/274 58/86/275 59/89/276
f 34/87/277 46/88/278 35/90/279
f 35/90/280 46/88/281 47/91/282
f 46/88/283 59/89/284 47/91/285
f 47/91/286 59/89/287 60/92/288
f 35/90/289 47/91/290 36/93/291
f 36/93/292 47/91/293 48/94/294
f 47/91/295 60/92/296 48/94/297
f 48/94/298 60/92/299 61/95/300
f 25/60/301 36/96/302 37/62/303
f 37/62/304 36/96/305 48/97/306
f 37/62/307 48/97/308 49/64/309
f 49/64/310 48/97/311 61/98/312
f 42/75/313 41/72/314 55/99/315
f 55/99/316 41/72/317 54/73/318
f 42/77/319 55/100/320 43/79/321
f 43/79/322 55/100/323 56/82/324
