# This file uses centimeters as units for non-parametric coordinates.

mtllib sink_model_v2.mtl
g default
v -0.691124 0.665866 0.018001
v -0.691124 0.665866 -0.040244
v -0.640123 0.665675 0.018001
v -0.640123 0.665675 -0.040244
v -0.691080 0.640524 -0.040244
v -0.640168 0.641750 -0.040244
v -0.640168 0.641750 0.018001
v -0.691080 0.640524 0.018001
v -0.731976 0.640453 0.008733
v -0.731976 0.640453 -0.030976
v -0.732020 0.665795 0.008733
v -0.732020 0.665795 -0.030976
v -0.684682 0.640524 -0.075160
v -0.646566 0.641750 -0.075160
v -0.684715 0.665866 -0.075160
v -0.646533 0.665675 -0.075160
v -0.647077 0.641750 0.053519
v -0.684171 0.640524 0.053519
v -0.647045 0.665675 0.053519
v -0.684203 0.665866 0.053519
v -0.605175 0.641685 -0.029307
v -0.605175 0.641685 0.007064
v -0.605131 0.665611 -0.029307
v -0.605131 0.665611 0.007064
v -0.690916 0.582286 -0.040244
v -0.690916 0.582286 0.018001
v -0.640331 0.588789 0.018001
v -0.640331 0.588789 -0.040244
v -0.683968 0.446466 0.045046
v -0.529940 0.437488 0.045046
v -0.683968 0.446466 -0.067290
v -0.529940 0.437488 -0.067290
v -0.640331 0.595857 0.045046
v -0.530616 0.505729 0.045046
v -0.530616 0.505729 -0.067290
v -0.640331 0.595857 -0.067290
v -0.448765 0.670201 0.049252
v -0.424910 0.566291 0.049252
v -0.424910 0.566291 -0.071495
v -0.448765 0.670201 -0.071495
v -0.308529 0.645641 0.031898
v -0.316638 0.572846 0.031898
v -0.316638 0.572846 -0.054142
v -0.308529 0.645641 -0.054142
v -0.700799 0.579530 0.037170
v -0.700799 0.579530 -0.059414
v -0.530311 0.478613 -0.067290
v -0.530311 0.478613 0.045046
v -0.690610 0.202070 0.713774
v 0.782431 0.202070 0.713774
v -0.690610 0.344955 0.713774
v 0.782431 0.344955 0.713774
v -0.690610 0.344955 -0.713774
v 0.782431 0.344955 -0.713774
v -0.690610 0.202070 -0.713774
v 0.782431 0.202070 -0.713774
v -0.690695 0.451200 0.689421
v 0.755736 0.451200 0.689421
v 0.755736 0.451200 -0.689421
v -0.690695 0.451200 -0.689421
v -0.517005 0.451200 0.579833
v 0.635607 0.451200 0.579833
v 0.635607 0.451200 -0.579833
v -0.517005 0.451200 -0.579833
v -0.497764 0.159305 0.534581
v 0.589585 0.159305 0.534581
v 0.589585 0.159305 -0.534581
v -0.497764 0.159305 -0.534581
v -0.655339 -0.033068 -0.458093
v 0.257153 -0.033068 -0.458093
v 0.257153 -0.033068 0.458093
v -0.655339 -0.033068 0.458093
v -0.640331 0.603397 -0.011122
v -0.448765 0.676711 -0.011121
v -0.300462 0.649086 -0.011122
v -0.304336 0.571706 -0.011122
v -0.424910 0.560869 -0.011121
v -0.514645 0.502865 -0.011122
v -0.519308 0.478613 -0.011122
v -0.524428 0.437488 -0.011122
v -0.709965 0.579530 -0.011122
v -0.688757 0.446466 -0.011122
vt 0.760548 0.220382
vt 0.767139 0.227439
vt 0.759079 0.234967
vt 0.752488 0.227910
vt 0.675850 0.225709
vt 0.664824 0.225662
vt 0.664871 0.214634
vt 0.675898 0.214681
vt 0.666117 0.205058
vt 0.676145 0.205042
vt 0.666100 0.194030
vt 0.676127 0.194014
vt 0.664824 0.184458
vt 0.675850 0.184376
vt 0.694474 0.230643
vt 0.695775 0.237745
vt 0.691031 0.238464
vt 0.689993 0.231309
vt 0.811944 0.255944
vt 0.813446 0.251670
vt 0.819943 0.253954
vt 0.818440 0.258228
vt 0.819976 0.232077
vt 0.820874 0.236790
vt 0.813933 0.237887
vt 0.813073 0.233439
vt 0.715115 0.238801
vt 0.710436 0.237743
vt 0.712095 0.230410
vt 0.716775 0.231468
vt 0.702496 0.237745
vt 0.704930 0.226989
vt 0.706997 0.222659
vt 0.714162 0.226080
vt 0.765648 0.239427
vt 0.771141 0.234295
vt 0.710437 0.242540
vt 0.702497 0.242543
vt 0.700759 0.228261
vt 0.695777 0.242543
vt 0.771141 0.222040
vt 0.766207 0.216756
vt 0.692870 0.226407
vt 0.699155 0.224025
vt 0.823214 0.243230
vt 0.813690 0.244733
vt 0.809163 0.244574
vt 0.809405 0.237727
vt 0.748468 0.233458
vt 0.753271 0.238599
vt 0.825384 0.235152
vt 0.827724 0.241592
vt 0.824093 0.248391
vt 0.827724 0.251100
vt 0.823574 0.256663
vt 0.754512 0.216954
vt 0.749479 0.221655
vt 0.808919 0.251511
vt 0.883276 0.254047
vt 0.887807 0.260406
vt 0.872537 0.264364
vt 0.870513 0.254674
vt 0.495803 0.388678
vt 0.488088 0.388012
vt 0.474531 0.355484
vt 0.498709 0.358833
vt 0.522936 0.302043
vt 0.523793 0.309911
vt 0.513027 0.311545
vt 0.512361 0.303830
vt 0.479834 0.290272
vt 0.483183 0.314451
vt 0.471623 0.347127
vt 0.498709 0.346981
vt 0.926709 0.231687
vt 0.926856 0.194868
vt 0.952791 0.211185
vt 0.947167 0.234003
vt 0.858184 0.236549
vt 0.853585 0.216035
vt 0.863753 0.209843
vt 0.869105 0.232726
vt 0.889881 0.193836
vt 0.889590 0.230653
vt 0.901300 0.194364
vt 0.900834 0.233520
vt 0.932743 0.255155
vt 0.945498 0.255933
vt 0.863753 0.259018
vt 0.489141 0.283910
vt 0.511419 0.298767
vt 0.522292 0.297388
vt 0.468168 0.364792
vt 0.483026 0.387070
vt 0.548589 0.443356
vt 0.605751 0.715984
vt 0.521911 0.447460
vt 0.578649 0.718418
vt 0.899688 0.702852
vt 0.899688 0.908726
vt 0.697257 0.702852
vt 0.697257 0.908726
vt 0.562875 0.288835
vt 0.484395 0.022072
vt 0.589256 0.282516
vt 0.510512 0.015094
vt 0.934184 0.531841
vt 0.761416 0.531841
vt 0.934184 0.358374
vt 0.761416 0.358374
vt 0.592583 0.987930
vt 0.565593 0.987089
vt 0.635614 0.549761
vt 0.609048 0.554628
vt 0.557296 0.719925
vt 0.501999 0.452642
vt 0.545346 0.980662
vt 0.466018 0.032560
vt 0.543474 0.296104
vt 0.588480 0.553167
vt 0.976363 0.666323
vt 0.976362 0.940184
vt 0.955614 0.699208
vt 0.955614 0.917439
vt 0.929004 0.987419
vt 0.667940 0.987419
vt 0.908256 0.964675
vt 0.688690 0.964675
vt 0.620581 0.666323
vt 0.641330 0.699208
vt 0.620582 0.940184
vt 0.641330 0.917439
vt 0.667940 0.614580
vt 0.929004 0.614580
vt 0.688689 0.647466
vt 0.908256 0.647465
vt 0.661962 0.597610
vt 0.940862 0.597610
vt 0.652452 0.580251
vt 0.652452 0.309964
vt 0.661962 0.292605
vt 0.940862 0.292605
vt 0.979202 0.309964
vt 0.979202 0.580251
vt 0.915431 0.234419
vt 0.915431 0.195261
vt 0.928137 0.261458
vt 0.943359 0.265598
vt 0.958041 0.237955
vt 0.952205 0.260357
vt 0.962885 0.217499
vt 0.486301 0.398587
vt 0.481645 0.397943
vt 0.494170 0.399445
vt 0.471331 0.314451
vt 0.471477 0.287365
vt 0.460001 0.356529
vt 0.480879 0.275742
vn 0.003746 0.999993 0.000000
vn 0.003746 0.999993 0.000000
vn 0.003746 0.999993 0.000000
vn 0.003746 0.999993 0.000000
vn -0.999996 -0.002816 0.000000
vn -0.999996 -0.002816 0.000000
vn -0.999996 -0.002816 0.000000
vn -0.999996 -0.002816 0.000000
vn 0.000000 0.000000 1.000000
vn 0.000000 0.000000 1.000000
vn 0.000000 0.000000 1.000000
vn 0.000000 0.000000 1.000000
vn 0.999995 -0.003078 0.000000
vn 0.999995 -0.003078 0.000000
vn 0.999995 -0.003078 0.000000
vn 0.999995 -0.003078 0.000000
vn 0.000000 0.000000 -1.000000
vn 0.000000 0.000000 -1.000000
vn 0.000000 0.000000 -1.000000
vn 0.000000 0.000000 -1.000000
vn 0.000000 0.000000 -1.000000
vn 0.000000 0.000000 -1.000000
vn 0.000000 0.000000 -1.000000
vn 0.000000 0.000000 -1.000000
vn 0.999998 -0.001839 0.000000
vn 0.999998 -0.001839 0.000000
vn 0.999998 -0.001839 0.000000
vn 0.999998 -0.001839 0.000000
vn 0.000000 0.000000 1.000000
vn 0.000000 0.000000 1.000000
vn 0.000000 0.000000 1.000000
vn 0.000000 0.000000 1.000000
vn -0.999999 -0.001738 0.000000
vn -0.999999 -0.001738 0.000000
vn -0.999999 -0.001738 0.000000
vn -0.999999 -0.001738 0.000000
vn 0.001737 -0.999999 0.000000
vn 0.001737 -0.999999 0.000000
vn 0.001737 -0.999999 0.000000
vn 0.001737 -0.999999 0.000000
vn -0.221018 -0.000384 0.975270
vn -0.221018 -0.000384 0.975270
vn -0.221018 -0.000384 0.975270
vn -0.221018 -0.000384 0.975270
vn -0.001736 0.999999 0.000000
vn -0.001736 0.999999 0.000000
vn -0.001736 0.999999 0.000000
vn -0.001736 0.999999 0.000000
vn -0.221018 -0.000384 -0.975270
vn -0.221018 -0.000384 -0.975270
vn -0.221018 -0.000384 -0.975270
vn -0.221018 -0.000384 -0.975270
vn 0.032146 -0.999466 -0.005891
vn 0.024073 -0.999700 -0.004411
vn 0.024073 -0.999700 0.004411
vn 0.032146 -0.999466 0.005890
vn -0.983622 -0.001279 -0.180238
vn -0.983622 -0.001710 -0.180238
vn -0.983566 -0.001710 -0.180540
vn -0.983567 -0.001279 -0.180540
vn 0.005003 0.999987 0.000918
vn 0.003746 0.999993 0.000688
vn 0.003746 0.999993 -0.000688
vn 0.005003 0.999987 -0.000918
vn 0.983562 -0.001357 -0.180566
vn 0.983561 -0.001850 -0.180566
vn 0.983621 -0.001850 -0.180239
vn 0.983622 -0.001358 -0.180239
vn 0.033031 -0.999434 -0.006425
vn 0.024073 -0.999699 -0.004683
vn 0.024073 -0.999699 0.004683
vn 0.033031 -0.999434 0.006425
vn 0.981600 -0.001313 0.190942
vn 0.981600 -0.001846 0.190942
vn 0.981532 -0.001846 0.191288
vn 0.981533 -0.001313 0.191288
vn 0.005141 0.999986 0.001002
vn 0.003746 0.999993 0.000730
vn 0.003746 0.999993 -0.000730
vn 0.005141 0.999986 -0.001002
vn -0.981538 -0.001237 0.191263
vn -0.981537 -0.001706 0.191263
vn -0.981600 -0.001706 0.190941
vn -0.981601 -0.001237 0.190941
vn -0.001857 -0.999998 0.000000
vn -0.001857 -0.999998 0.000000
vn -0.001857 -0.999998 0.000000
vn -0.001857 -0.999998 0.000000
vn 0.298316 -0.000548 -0.954467
vn 0.298316 -0.000561 -0.954467
vn 0.298324 -0.000561 -0.954464
vn 0.298324 -0.000548 -0.954465
vn 0.001829 0.999998 0.000000
vn 0.001829 0.999998 0.000000
vn 0.001829 0.999998 0.000000
vn 0.001829 0.999998 0.000000
vn 0.298324 -0.000548 0.954465
vn 0.298324 -0.000561 0.954464
vn 0.298316 -0.000561 0.954467
vn 0.298316 -0.000548 0.954467
vn 0.978557 -0.109006 -0.174767
vn 0.982386 -0.049183 -0.180276
vn 0.960013 -0.048063 -0.275799
vn 0.955254 -0.106410 -0.275984
vn 0.000000 0.000000 1.000000
vn -0.046395 -0.000419 0.998923
vn -0.012043 0.057564 0.998269
vn 0.003470 0.059523 0.998221
vn 0.974105 -0.121273 -0.190821
vn 0.987667 -0.122961 -0.096925
vn 0.995179 0.008977 -0.097662
vn 0.981310 0.008852 -0.192232
vn -0.012043 0.057564 -0.998269
vn -0.046395 -0.000419 -0.998923
vn 0.000000 0.000000 -1.000000
vn 0.003470 0.059523 -0.998221
vn -0.970633 -0.154701 0.184228
vn -0.984054 -0.156840 0.083902
vn -0.989170 -0.120126 0.084339
vn -0.976222 -0.112513 0.185289
vn -0.020155 -0.004627 0.999786
vn -0.014907 -0.018147 0.999724
vn -0.023425 -0.028516 0.999319
vn -0.035142 -0.008068 0.999350
vn 0.541319 -0.837447 -0.075209
vn 0.532603 -0.823960 -0.193456
vn 0.483461 -0.856419 -0.181138
vn 0.493281 -0.866383 -0.077808
vn -0.023419 -0.028509 -0.999319
vn -0.014904 -0.018143 -0.999724
vn -0.020151 -0.004626 -0.999786
vn -0.035133 -0.008066 -0.999350
vn -0.361890 0.926848 -0.099939
vn -0.361366 0.924134 -0.124057
vn -0.354650 0.926687 -0.124399
vn -0.355628 0.929241 -0.100197
vn 0.120485 -0.013421 0.992624
vn 0.127819 0.029344 0.991363
vn 0.156045 0.035824 0.987100
vn 0.159284 -0.017743 0.987073
vn 0.089397 -0.994642 -0.051921
vn 0.089161 -0.992025 -0.089092
vn 0.074428 -0.993229 -0.089200
vn 0.067674 -0.996657 -0.045763
vn 0.156036 0.035822 -0.987102
vn 0.127812 0.029342 -0.991364
vn 0.120478 -0.013421 -0.992625
vn 0.159275 -0.017742 -0.987075
vn 0.184938 0.976249 -0.112855
vn 0.184184 0.977227 -0.105372
vn 0.182103 0.977613 -0.105413
vn 0.181964 0.976866 -0.112347
vn -0.046456 -0.000523 -0.998920
vn -0.102881 -0.096542 -0.989998
vn -0.096881 -0.117935 -0.988284
vn 0.000000 0.000000 -1.000000
vn 0.943442 -0.181398 -0.277511
vn 0.964332 -0.185414 -0.188907
vn 0.981288 0.011040 -0.192228
vn 0.961960 0.010822 -0.272975
vn -0.096881 -0.117935 0.988284
vn -0.102881 -0.096542 0.989998
vn -0.046456 -0.000523 0.998920
vn 0.000000 0.000000 1.000000
vn 0.000000 0.000000 1.000000
vn 0.000000 0.000000 1.000000
vn 0.000000 0.000000 1.000000
vn 0.000000 0.000000 1.000000
vn 0.000000 0.000000 1.000000
vn 0.000000 0.000000 1.000000
vn 0.000000 1.000000 0.000000
vn 0.000000 1.000000 0.000000
vn 0.000000 1.000000 0.000000
vn 0.000000 1.000000 0.000000
vn 0.000000 1.000000 0.000000
vn 0.000000 1.000000 0.000000
vn 0.000000 0.000000 -1.000000
vn 0.000000 0.000000 -1.000000
vn 0.000000 0.000000 -1.000000
vn 0.000000 0.000000 -1.000000
vn 0.000000 0.000000 -1.000000
vn 0.000000 0.000000 -1.000000
vn 0.000000 -1.000000 0.000000
vn 0.000000 -1.000000 0.000000
vn 0.000000 -1.000000 0.000000
vn 0.000000 -1.000000 0.000000
vn 0.000000 -1.000000 0.000000
vn 0.000000 -1.000000 0.000000
vn 1.000000 0.000000 0.000000
vn 1.000000 0.000000 0.000000
vn 1.000000 0.000000 0.000000
vn 1.000000 0.000000 0.000000
vn 1.000000 0.000000 0.000000
vn 1.000000 0.000000 0.000000
vn -1.000000 0.000000 0.000000
vn -1.000000 0.000000 0.000000
vn -1.000000 0.000000 0.000000
vn -1.000000 0.000000 0.000000
vn -1.000000 0.000000 0.000000
vn -1.000000 0.000000 0.000000
vn 0.000000 0.223422 0.974722
vn 0.000000 0.223422 0.974722
vn 0.000000 0.223422 0.974722
vn 0.000000 0.223422 0.974722
vn 0.000000 0.223422 0.974722
vn 0.000000 0.223422 0.974722
vn 0.969854 0.243685 0.000000
vn 0.969854 0.243685 0.000000
vn 0.969854 0.243685 0.000000
vn 0.969854 0.243685 0.000000
vn 0.969854 0.243685 0.000000
vn 0.969854 0.243685 0.000000
vn 0.000000 0.223422 -0.974722
vn 0.000000 0.223422 -0.974722
vn 0.000000 0.223422 -0.974722
vn 0.000000 0.223422 -0.974722
vn 0.000000 0.223422 -0.974722
vn 0.000000 0.223422 -0.974722
vn -1.000000 -0.000801 0.000000
vn -1.000000 -0.000801 0.000000
vn -1.000000 -0.000801 0.000000
vn -1.000000 -0.000801 0.000000
vn -1.000000 -0.000801 0.000000
vn -1.000000 -0.000801 0.000000
vn 0.000000 1.000000 0.000000
vn 0.000000 1.000000 0.000000
vn 0.000000 1.000000 0.000000
vn 0.000000 1.000000 0.000000
vn 0.000000 1.000000 0.000000
vn 0.000000 1.000000 0.000000
vn 0.000000 1.000000 0.000000
vn 0.000000 1.000000 0.000000
vn 0.000000 1.000000 0.000000
vn 0.000000 1.000000 0.000000
vn 0.000000 1.000000 0.000000
vn 0.000000 1.000000 0.000000
vn 0.000000 1.000000 0.000000
vn 0.000000 1.000000 0.000000
vn 0.000000 1.000000 0.000000
vn 0.000000 1.000000 0.000000
vn 0.000000 1.000000 0.000000
vn 0.000000 1.000000 0.000000
vn 0.000000 1.000000 0.000000
vn 0.000000 1.000000 0.000000
vn 0.000000 1.000000 0.000000
vn 0.000000 1.000000 0.000000
vn 0.000000 1.000000 0.000000
vn 0.000000 1.000000 0.000000
vn 0.000000 0.153198 -0.988196
vn 0.000000 0.153198 -0.988196
vn 0.000000 0.153198 -0.988196
vn 0.000000 0.153198 -0.988196
vn 0.000000 0.153198 -0.988196
vn 0.000000 0.153198 -0.988196
vn -0.987798 0.155742 0.000000
vn -0.987798 0.155742 0.000000
vn -0.987798 0.155742 0.000000
vn -0.987798 0.155742 0.000000
vn -0.987798 0.155742 0.000000
vn -0.987798 0.155742 0.000000
vn 0.000000 0.153198 0.988196
vn 0.000000 0.153198 0.988196
vn 0.000000 0.153198 0.988196
vn 0.000000 0.153198 0.988196
vn 0.000000 0.153198 0.988196
vn 0.000000 0.153198 0.988196
vn 0.997835 0.065775 0.000000
vn 0.997835 0.065775 0.000000
vn 0.997835 0.065775 0.000000
vn 0.997835 0.065775 0.000000
vn 0.997835 0.065775 0.000000
vn 0.997835 0.065775 0.000000
vn 0.000000 -0.736058 -0.676919
vn 0.000000 -0.736058 -0.676919
vn 0.000000 -0.736058 -0.676918
vn 0.000000 -0.736058 -0.676918
vn 0.000000 -0.736058 -0.676919
vn 0.000000 -0.736058 -0.676918
vn 0.408576 -0.912724 0.000000
vn 0.408576 -0.912724 0.000000
vn 0.408576 -0.912724 0.000000
vn 0.408576 -0.912724 0.000000
vn 0.408576 -0.912724 0.000000
vn 0.408576 -0.912724 0.000000
vn 0.000000 -0.736058 0.676919
vn 0.000000 -0.736058 0.676918
vn 0.000000 -0.736058 0.676919
vn 0.000000 -0.736058 0.676919
vn 0.000000 -0.736058 0.676918
vn 0.000000 -0.736058 0.676918
vn -0.988936 -0.148342 0.000000
vn -0.988936 -0.148342 0.000000
vn -0.988936 -0.148342 0.000000
vn -0.988936 -0.148342 0.000000
vn -0.988936 -0.148342 0.000000
vn -0.988936 -0.148342 0.000000
vn -0.355629 0.929241 0.100199
vn -0.354651 0.926686 0.124399
vn -0.361367 0.924134 0.124057
vn -0.361891 0.926848 0.099941
vn 0.181965 0.976866 0.112347
vn 0.182104 0.977612 0.105415
vn 0.184185 0.977227 0.105373
vn 0.184939 0.976249 0.112856
vn 0.960013 -0.048063 0.275799
vn 0.982386 -0.049183 0.180276
vn 0.978557 -0.109006 0.174767
vn 0.955254 -0.106410 0.275984
vn 0.067674 -0.996657 0.045763
vn 0.074429 -0.993229 0.089201
vn 0.089162 -0.992024 0.089093
vn 0.089397 -0.994642 0.051921
vn 0.493280 -0.866384 0.077809
vn 0.483460 -0.856420 0.181138
vn 0.532600 -0.823962 0.193455
vn 0.541318 -0.837447 0.075211
vn 0.961960 0.010822 0.272975
vn 0.981288 0.011040 0.192228
vn 0.964332 -0.185414 0.188907
vn 0.943442 -0.181398 0.277511
vn 0.981310 0.008852 0.192232
vn 0.995179 0.008977 0.097662
vn 0.987667 -0.122961 0.096925
vn 0.974105 -0.121273 0.190821
vn -0.976222 -0.112513 -0.185289
vn -0.989170 -0.120126 -0.084339
vn -0.984054 -0.156840 -0.083902
vn -0.970633 -0.154701 -0.184228
vn -0.323621 0.944191 0.061424
vn -0.266476 0.962514 0.050578
vn -0.274032 0.953171 0.127955
vn -0.321650 0.938441 0.125977
vn -0.323621 0.944191 -0.061424
vn -0.321650 0.938441 -0.125977
vn -0.274032 0.953171 -0.127955
vn -0.266476 0.962514 -0.050578
s off
g sink_model
usemtl initialShadingGroup
f 4/1/1 2/2/2 1/3/3 3/4/4
f 5/5/5 25/6/6 26/7/7 8/8/8
f 8/8/9 26/7/10 27/9/11 7/10/12
f 7/10/13 27/9/14 28/11/15 6/12/16
f 28/11/17 25/13/18 5/14/19 6/12/20
f 14/15/21 13/16/22 15/17/23 16/18/24
f 24/19/25 22/20/26 21/21/27 23/22/28
f 20/23/29 18/24/30 17/25/31 19/26/32
f 12/27/33 10/28/34 9/29/35 11/30/36
f 10/28/37 5/31/38 8/32/39 9/29/40
f 9/29/41 8/32/42 1/33/43 11/34/44
f 11/35/45 1/3/46 2/2/47 12/36/48
f 12/37/49 2/38/50 5/31/51 10/28/52
f 14/15/53 6/39/54 5/31/55 13/16/56
f 13/16/57 5/31/58 2/38/59 15/40/60
f 15/41/61 2/2/62 4/1/63 16/42/64
f 16/43/65 4/44/66 6/39/67 14/15/68
f 18/24/69 8/45/70 7/46/71 17/25/72
f 17/25/73 7/46/74 3/47/75 19/48/76
f 19/49/77 3/4/78 1/3/79 20/50/80
f 20/51/81 1/52/82 8/45/83 18/24/84
f 22/20/85 7/46/86 6/53/87 21/21/88
f 21/21/89 6/53/90 4/54/91 23/55/92
f 23/56/93 4/1/94 3/4/95 24/57/96
f 24/58/97 3/47/98 7/46/99 22/20/100
f 44/59/101 75/60/102 76/61/103 43/62/104
f 30/63/105 48/64/106 45/65/107 29/66/108
f 79/67/109 80/68/110 32/69/111 47/70/112
f 46/71/113 47/70/114 32/69/115 31/72/116
f 81/73/117 82/74/118 29/66/119 45/65/120
f 37/75/121 33/76/122 34/77/123 38/78/124
f 77/79/125 78/80/126 35/81/127 39/82/128
f 35/81/129 36/83/130 40/84/131 39/82/132
f 40/84/133 36/83/134 73/85/135 74/86/136
f 41/87/137 37/75/138 38/78/139 42/88/140
f 76/89/141 77/79/142 39/82/143 43/62/144
f 39/82/145 40/84/146 44/59/147 43/62/148
f 44/59/149 40/84/150 74/86/151 75/60/152
f 47/70/153 46/71/154 36/90/155 35/91/156
f 78/92/157 79/67/158 47/70/159 35/91/160
f 33/93/161 45/65/162 48/64/163 34/94/164
f 49/95/165 50/96/166 51/97/167
f 51/97/168 50/96/169 52/98/170
f 65/99/171 66/100/172 68/101/173
f 68/101/174 66/100/175 67/102/176
f 53/103/177 54/104/178 55/105/179
f 55/105/180 54/104/181 56/106/182
f 69/107/183 70/108/184 72/109/185
f 72/109/186 70/108/187 71/110/188
f 50/96/189 56/111/190 52/98/191
f 52/98/192 56/111/193 54/112/194
f 55/105/195 49/113/196 53/103/197
f 53/103/198 49/113/199 51/114/200
f 52/98/201 58/115/202 51/97/203
f 51/97/204 58/115/205 57/116/206
f 52/98/207 54/112/208 58/115/209
f 58/115/210 54/112/211 59/117/212
f 54/104/213 53/103/214 59/118/215
f 59/118/216 53/103/217 60/119/218
f 53/103/219 51/114/220 60/119/221
f 60/119/222 51/114/223 57/120/224
f 57/121/225 58/122/226 61/123/227
f 61/123/228 58/122/229 62/124/230
f 58/125/231 59/126/232 62/127/233
f 62/127/234 59/126/235 63/128/236
f 60/129/237 64/130/238 59/131/239
f 59/131/240 64/130/241 63/132/242
f 60/133/243 57/134/244 64/135/245
f 64/135/246 57/134/247 61/136/248
f 62/124/249 66/100/250 61/123/251
f 61/123/252 66/100/253 65/99/254
f 62/127/255 63/128/256 66/100/257
f 66/100/258 63/128/259 67/102/260
f 63/132/261 64/130/262 67/102/263
f 67/102/264 64/130/265 68/101/266
f 64/135/267 61/136/268 68/101/269
f 68/101/270 61/136/271 65/99/272
f 56/137/273 70/108/274 55/138/275
f 55/138/276 70/108/277 69/107/278
f 56/139/279 50/140/280 70/108/281
f 70/108/282 50/140/283 71/110/284
f 50/141/285 49/142/286 71/110/287
f 71/110/288 49/142/289 72/109/290
f 49/143/291 55/144/292 72/109/293
f 72/109/294 55/144/295 69/107/296
f 74/145/297 73/146/298 33/76/299 37/75/300
f 75/147/301 74/145/302 37/75/303 41/87/304
f 76/148/305 75/147/306 41/87/307 42/88/308
f 42/88/309 38/78/310 77/149/311 76/150/312
f 38/78/313 34/77/314 78/151/315 77/149/316
f 34/94/317 48/64/318 79/152/319 78/153/320
f 48/64/321 30/63/322 80/154/323 79/152/324
f 46/71/325 31/72/326 82/155/327 81/156/328
f 81/73/329 45/65/330 33/93/331 73/157/332
f 81/156/333 73/158/334 36/90/335 46/71/336
